<svg xmlns="http://www.w3.org/2000/svg" xml:space="preserve" viewBox="0 0 1024 1024">
  <path fill="#27292a" d="M568 1025H1V1h1024v1024zM221 296s.2 0-.3.3l-.7 1.3-.5.8-.4 1.2q.1.2-.8.5c-.8 1.2-2.3 2.4-2.3 3.5.2 8.9.9 17.7 1 26.6v53c.1 2.2 1.4 4.5 2.2 7.1v1c.3 6.4 6.6 9.4 14.5 7.8q.6 0 1.6.9l33 8.3c3.2.8 6.5 1.1 10.2 1.8q.4.2.6 1.5l1.7 2.1q10.7 23.9 20.9 47.9c.8 2 .3 5.3-.9 7.2q-12 19.5-24.6 38.7c-4.7 7.2-4.4 11.1 1.6 17.2l54.9 55.2c6 6 9 6.3 16.7 2.5l1.8-2q.1-.4 1.5-.4l4.3-3.2s0 .2.4-.2l.7-1.3q.2-.3 1.4-.4l1.3-1 .7-.1 1.8-2.4q1-.7 3.1-1.5 1.1-1 2.6-2l.4-.3.7-1.3q.1-.3 1.5-.3 1.2-1 2.5-2.7c.3-.2.5-.3 1.6-.3l3.3-3h.7l2.2-2 .6-.1 1.9-1.2 1.3-1c.7-2.4 2.2-4.9 2-7.2-.8-9-2.4-17.9-3.2-26.8-.6-6-.3-12-.8-18 0-1.3-1.7-2.5-2.7-4.3q-.3-.5.3-1.7 3-4.6-1.3-9.3-.1-.5.3-1.7l-1.3-4.5-2.3-2.6-.8-.6-.2-.3-1.4-1a187 187 0 0 1-35.6-59c0-1.2.4-2.6 0-3.5a141 141 0 0 1-11.3-44.8c-1.3-13.7-.2-27.6 0-41.4.1-14.7 4.2-28.6 9-42.4.7-2 .5-4.4.9-7.3 5.8-11 11-22.3 17.5-32.8 11.7-19 27.7-34 45.8-47.6l.4-.8h.7l4.8-3.2q.3 0 1.2-.8l3.3-2.1.6-.1 2.4-1.9h.7l5.4-4 .6.4 2.3-1.4h.6l1.4-1s0 .1.8 0q17.6-6.7 35.2-13-.2 0 .6.6l2.4.2c14.6-1.8 29-4 43.6-5.4 6.2-.6 12.6-.1 18.8.3 8 .5 15.8 1.5 23.6 2 0 0 .3-.1.3.6l10.4 1 25 7.8 3.3 1 .4.5 8.6 3.4.3.5 1.7.5.3.6L611 190l.3.6 1.6.4.3.7q4.4 2.5 9.2 6l6.5 4.6c18 13.4 32.5 30.1 45.1 49.3l1 1.4.1.6 1.8 1.5-.2.7q2 3.7 4.3 7.2v.6l1 1.4v.6l1 .4-.4.7 1.3 2.3v.7l3 5.3-.2.7.5 2a112 112 0 0 1 7.6 21.2q3.2 19.8 6.2 40.9l.1 5.2c-.3 6.6-.3 13.3-1 19.9q-1.2 12.8-3.8 25.8l-1.4 5-9.2 28.2-.5.2L676 443l-.5.4q-.3.9-1.3 2.2-7.4 11.2-15.6 22.8-.8 1.3-2.1 2.6l-.8.4-.7 1.5v1.1h-.6l-1.2 1.2q-.3.5-1.8.8c-3.2.4-4.3 2.4-4.2 5.4 0 0 0-.3-.5 0l-.7 2.2q.2.3-1 .8c-.7.7-1.7 1.4-1.8 2.2l-2 21-1 10.1c-.5 8.3-.2 16.8-1.6 25-.7 4.1-.8 7.6 1.4 11.9l38.6 28.8q6.4 3.8 11.8-1.2l25.4-25.4q2-2.3 4.7-4.9l.5-.9h.5q.3-.6 1-1c.4-.2.5-.5 1.1-1.1Q729 543 734 537h.8l2.8-2.4q1.5-1.8 4-4.1l2.6-3.5h.5l.3-1h.7l.3-1h.6l.4-1 .8-.1c6-6 5.8-11.2-.6-18.2v-.7l-2.1-3.1-.2-.7-4.8-6.4.1-.6-2-2.5v-.7l-12-18.2v-.7L724 469l-.1-.8c-.1-2-.8-4.3-.1-6q11-25.6 22.3-51.2l.4-.1q.2-.4 1-1l1-.9 1.5-1h.8q11-2.6 22.9-5l2-.6q11.5-2.2 22.9-4.7c1.6-.4 3-1.6 4.6-2.6h.5l.3-1h.7l.3-1 .8-.4q.6-6.9 1.6-14 .2-.2-.4-1.5-.1-2 .6-4.7l-.7-4.3q-.1-1.4.7-3.9l.3-47.5c0-.6-.6-1.2-1-2.5l.5-1.5q.2-.2-.4-1.7c-.3-4.9 1.6-10.2-3.1-14.7l-1.2-1-4.2-2.2c-14.2-3-28.2-6.4-42.5-8.8-6.8-1.2-9.7-4.7-12.1-10.6a797 797 0 0 0-18.9-43.4c-2-4.4-2.2-7.5.4-11.4q12-18.2 23.6-36.5c4.3-6.8 4.2-9.8-1.3-15.4a6043 6043 0 0 0-54.3-54.4c-7.1-7-10.2-7-18.4-1.6q-19.3 12.8-38.4 26c-3.3 2.2-6.2 2-9.8.5-13.6-5.7-27.2-11.5-41.1-16.4-6-2.1-10-5-11.4-12-2.5-9.7-5-19.4-7.5-30-2.3-6.6-2-14.4-8.2-20.3q-.8-.5-2.3-.7l-.9-.2q-.1.2-.7-1c-1.2-.3-2.5-1-3.7-1h-75.8c-1.4.1-2.8 1.2-4.7 2l-.5 1-.6-.6q-1.3.7-2.4 1.6h-.5l-1 .5-.6 1.4-.7.2c-1 2.6-2.4 5-3.1 7.7-4.2 15.4-8.2 31-12.9 46.7q-4.3 2.4-8.7 4.4c-13.6 5.4-27.2 10.4-40.6 16.2-4 1.7-7 2-10.6-.3-11.2-7.7-22.6-15-33.8-22.9-13.4-9.3-13.3-9.4-25.7 1.4l-1 1.5-5 4.5-1 1.4q-1.2 1.2-3.1 2.6l-1 1.5-39 39.4c-6 6-6.6 10.6-1.9 17.6q12.2 18 24.1 36.2c1.4 2.1 2 5.9 1.1 8-5.6 13.2-11.7 26-18.2 39.4l-.7 1.6-.5.4-.8 5q.2.4-1.1 1-.9 2.1-1.8 5-.3.3-1.7.6-22.2 4.4-44.3 9.2c-2 .4-4 1.7-6.5 2.9l-2.4 1.8h-.5l-1.5.4zm401.8 61.2.1.5q.4.4 1 .4-.2-.2 0 .7c-2.8 3.7-5.4 7.7-8.6 11-2.3 2.5-5.5 4.1-9 6.3l-11.8 7.5.6 1.7 13.6-4.5a83 83 0 0 0 28.6-20.6c-3 .3-4.4.5-5.5-.2q0-.4.8-1 .1-.4 1.2-1.2c1.8-1.9 3.5-3.7 6-5.8q1.4-1.4 3.9-3.2c4.9-5 4.9-5-.5-9-3.8-2.9-7.6-5.7-11.5-9.3a897 897 0 0 1-17.2-34q2.3-7.4 4-15.2a647 647 0 0 0 4-31.4c.2-1.2-1.5-2.6-2.5-4.6q-.2-1.1.8-2.6c.3-.3.9-.7.9-1 .2-7.2-4-12.8-6.5-19-.2-.5-1.5-.5-2.7-.9q-.2 0-.4-.5l-.1-1c-.4-4.2-3.2-3.8-6.2-3.6-5.5.4-11.3 0-15.2 6.2l-8.7 5h-.5l-.7.7-.6.2q-1.4.7-2.1 2.2-.1-.4-1-.2l-1.6 1.2q-.3 0-1 .8l-.8.8-.4.1-.8.5c-5.2 4.6-10.3 9.2-16.3 13.9q-1.7-.2-3.4-.7-31.4-9-63.6-3.5c-6.3 1.1-12.6 2.7-19 3.3q-5.4-4.4-11.3-9.8L454 234l-.3-.6-2.6-1.5-.3-.6c-7.7-4-15.2-8.5-23.3-11.8-4-1.7-9.3-3.6-13.2 1.8l-.4.6q-.3.2-.4.7l-.4.3-.8 1.3q.1.2-.5 1-2.3 7.4-5.6 15c-.3.3-1 .5-1 1a60 60 0 0 0-.4 30c0 .6 1.3 1.2 2.3 2.6q3 9.9 5.9 20.8-5.3 9-10.1 18.3c-3.2 6.2-6 12.6-9.5 19.3L379 343q5.1 6.4 9.7 13.5c-.3 1.6-4.4 3.6 1 4.8l3.5 4.7 2 1.2c.3.3.5.5.7 1.5l2.7 1.2 2.7 2.4q.5.3 1.7.6.3.3.8.2v.4l.2 1a38 38 0 0 1 7 4.2c1.3 1.4 2.3 3.5 3.9 4q6.6 2 13.6 3c.7.2 1.6-1.1 2.4-2.3l-1.4-1.6h-1.3q-.2 0 .2-1c-.5-4-3.5-2.5-5.7-2.7v-.6l-17-13.8c-.7-.9-1.3-1.7-1.9-3.4l-.3-1.7h.6l1.2-2.2.6.1q.5-.6 1.2-2.1c2.9-2.5 5.7-5 9.3-7.6q4.6-4.8 9.6-10.6 2.3-2 5.6-4.4.9-1.6 2.3-3c-.1 0-.3-.1.4 0l3-3.4.8.2 1.7-1.7h.7c3.3-.2 6.2-1 6.3-5h.6l2.4-2h.7l8.4-3c7.2-2.3 14.3-5.8 21.9-.9 1.5 1 3.8.6 6 .9l.1 1 4.5 3.6-.1.7q.8.9 2.4 2 1.3 2.3 1.9 4.8l-.5 1.8q1.2.2 2.6.7l-.5 1c-1.1 7 3.8 14.9-3.6 21.4l-3.3 1.3c-5.6 3.3-11.8 6-15.8 12.2l-.6 1.6-.6.1-1.3 3-.5.3-.5 1.7h-.7c-5 4.7-4.7 11-4 16.8.2 2.2 3.2 4 5.4 6.3l3 2.7q.3.1.4 1.3.7.9 2.5 1.9 3 1.3 6.6 3.7c1 .5 1.9 1.5 2.9 1.6q14.4 1.4 28.8 2.3 8.3.4 16.4-1c5.6-1 11.8-1.3 15.9-7.3q.6-.6 2-.2 1.1-1.5 3.5-3.2c1.5-.5 4-.5 2-3.8.4-.7.8-1.5 2-2.3 3-2.5 3.4-5.1.2-8.7l-12.3-23.8-3.6-1.2-.1-1-2.7-1-1.2-.3v-.4l-.5-.8-1.1-.2.1-.7c-.9-1.1-1.7-3.2-2.6-3.2-6.7-.3-5.1-5.5-6-9.3l-1.8-6.7q.1-.7 1.3-1.7 1.7-4 3.4-8.6l.6-.7.5-.6h.7c1.6-.5 4-.5 2.1-3.8l.5-1q-.1.2.5 0 .3-.2.8-1s0 .3.4 0q.3-.6 1.6-1.2l1-1 .9-.5.5-.3q.4-.2 1.5.3c1.2 0 2.7.3 3.7-.2 5.1-2.7 10.1-1.6 15.2-.1q2.7.6 6.6.5 3.4 1.6 7.3 4 2.3.9 4.3 2a618 618 0 0 1 20.6 16.2c3 3 6 6 9.1 9.4l1.3.7q.1-.1.5.6 1 .6 2.1 2.1 3.3 3 6.8 7l1.9 1.4.1.5zm-174.1 75-.6.8h-.7q-1.6 1.2-3.3 2.2l-1-.1-9.6-.1-.8-.3-1 1.2q-.2.4-1.7 1l-12.4-1.1c-.9-.1-2-.4-2.7 0-5.5 3.2-10.7 2-15.9-.9l-.1-.4q-.4-.2-1.2-1.1-3.4-6.6-7-14.2c0-2.6-.7-4.4-4-5q-5.4-3-11.2.8h-1q-.3 0-.7-.4-.3-.2-1.3.4h-1.3q-1 .1-2.6-.5l-2 .8q-.4.8-1 1.3h-.4c-.2.2-.4.4-1.4.8-.6.8-1.6 1.6-1.6 2.3l1.8 19q.5 1 1.6 2.3.1.2.4 0v.6l1 2 1 1 2.4 1.3q.4 0 1 1.3c2.4.6 4.7 1.7 7 1.7h265.4q2.4-.2 5.9-1 1-.5 2.7-1.7l3.7-1.5.9-.7.3-.3.6-.7.7-.2c.5-.4 1.4-.7 1.4-1.2 1-7.5 2.5-15 2.6-22.5 0-4.8-4.3-6.2-10.6-4a52 52 0 0 1-7.3-.6l-2.4.5q-1.1.1-2.7-.5-1.2 0-3.2.8c-1.4 7.1-2 14.5-9 19.7l-.4 1h-.8c-4.6 2-9 2.6-13.8.2-1.1-.6-3 .4-5 .7l-1.3.3-11.6-.3q-.4 0-1-.7L581 436l-.3-.5-2.8-2-1-1q-.5-.1-.9-1-.1-.1.4-.8-.6-.7-2-1.6h-.4v-.6l-.1-1.8-1.2-1.9.3-1c-.9-3 2-6.6-2-8.7 0 0-.1.1-.3-.7-1.5-.4-3-1.2-4.4-1.2H460.5c-1.5 0-3 1.2-5.3 2.1L452 429l-2.2 2.4-.8.7zm161.6 208.4.6-.7h.6l1.6-3.4c.2-.3.4-.5 1.4-.7q1-.8 1.8-1.7c6.8-10.8 3.8-23.7 7.4-35.3 1.4-4.7.3-10 1-15 .8-7.8 2.3-15.6 3-23.4.9-7.8.8-15.7 1.6-23.4.8-7.9 2.5-15.6 3.4-23.4.2-1.5-1.1-3.1-1.8-5.4q-.1-.6.9-1.5c1.3-2.6 3.9-5.3.1-8.5q-.1-.7 1-1.4c.7-.7 1.8-1.5 1.9-2.3.5-5.1.6-10.3 1.2-15.4.5-4.4 1.8-8.7 2.3-13.1.1-1-1.4-2-2.3-3.5l-.3-1.3c-1.5-.4-3-1.3-4.4-1.3H397.6c-1.5 0-3 1.2-5 2q-.3.2-.5 0l-.4-.3q-.3.3-.7 1.3.1.5-1 1.3c-.3.5-.9 1.1-.8 1.6q1.8 21.3 4 42.5c.3 3 1.4 6 2 9.2 0 0-.1-.1-.2.8l3 17.3q3.5 34.4 7.4 68.7 1.5 11.5 3.5 23.3l.2 1 .9 1.3v.5l.3 1.1a30 30 0 0 0 18.4 16.5q2 .5 4.8 2c1.6.3 3.2.9 4.8.9h149.5q2.8-.2 6-1.7 6-2.8 12.7-4.8l1.6-2.2q.1-.2 1.1-.6l.8-.7zm-63-311.7c-2.9.7-2 1.8-.3 3.6q.1.7-.6 1.7c-2.2 2.8-.4 3.3 2.4 3.9l2.7 3.1 1.7 1.1c5 1.7 8.6.2 11.8-4.5 3.7-3.2 3.7-4.9-.2-8.5q-2.4-2.2-5.2-5.5c-1.8-1.5-3.7-3.5-6.2.3q-2.6 2.4-6.1 4.8m-80.9-4.7q-2 1.9-5.3 3.8c-4 3-4.1 5.3 0 8.4q1 1.4 2.3 3.8.1.6 1.5 1.2c3.8 3.4 8 1.4 10.5-1 2.2-2.2 3.2-6.4 3.1-9.7 0-4.2-3.2-6.6-7.7-7.6q-1.7.3-4.4 1.1m154 77.8a26 26 0 0 0-21.1-7c-13.3 1.1-23.3 15.4-18.8 27.2.9 2.3 3.5 5.2 5.6 5.4 1.8.1 4.3-2.7 5.9-4.8 1.5-2 2.2-4.7 3.7-8.1 1.4 5.9-2.2 13.4 6 14 8 .4 8.4-7 10.1-14.2 1 4.3 1.2 7.1 2 9.8 1.8 5.3 6.9 6.3 10.4 2a16 16 0 0 0 2.7-5.3c2.4-7.5-1.6-13-6.6-19M413 417.4l.5-1.3.5.1c2 3.8 3.5 7.8 6.2 11 1.1 1.5 4.8 2 6.7 1.3 1.5-.6 2.6-3.5 3.1-5.6.5-2.2.1-4.6.1-7 2.6 3 4 6.2 5.7 9.2q3.4 5.7 7.9.7 4.6-5.6 2.8-12.7c-2.5-9.3-8.2-15.8-17.7-17.7-9.8-2-18.5 1-25 8.9-5.6 6.8-6.4 15-1.8 21.1a9 9 0 0 0 6.6 3.1c1.2 0 2.7-3 3.6-5 .7-1.6.6-3.6.8-6.1m128.6-102.9"/>
  <path fill="#c95f39" d="M701.2 344q-.1-1.9.1-5c-1-12-2.1-23.2-3.7-34.5-.3-2.2-2-4.3-3-6.4q-.4-.6-.4-2-2-7-4.4-12.8-1.4-2.8-2.4-6.2-.2-1.4-.6-2l.1-.4-3-5.7v-.3q-.4-1.6-1-2.7v-.2l-1-.8v-.2l-1-1.8v-.3l-4-7.7v-.2q-1-1.1-2-1.8v-.3l-1-1.7a190 190 0 0 0-45-48.7q-3.1-2-6.7-5.2-4.9-3.4-9.3-6l-.1-.3q-1-.6-2-.7.2 0 0-.3-5.5-3.1-11-5.7.2 0 0-.3l-1.9-.8v-.2q-4.6-2.1-9-3.7v-.3l-3.8-1-25.2-7.7-9.6-1.5-.4-.2-10.4-1.6a186 186 0 0 0-78.5 4.4l-.2-.5c-1-.6-2-1.4-2.5-1.2q-15.9 6-31.6 12.3c-.8.3-1.1 1.5-1.7 2.3h-.3l-1.7 1h-.3l-2.7 1h-.2q-3.2 2-5.7 4h-.4q-1.6 1-2.7 2h-.4q-2 1.1-3.5 2.2 0 .4-1.2.7-2.8 1.5-4.9 3.1h-.2l-.8 1a179 179 0 0 0-45.2 47.4c-6.5 10.5-11.7 21.9-17.8 33.5q-4.5 13.8-9 26.9l-2 9.3q-.3 2.6 0 5-.1 1.7-.8 3-.8 4.1-1.2 8.2l-.4 1q-.7 12.4-.6 24.5c.1 4.3 1.2 8.7 2 13.3v1.1l13.1 46.7a202 202 0 0 0 36.6 59.1l1.3 1v1.2q.9 1.2 1.7 1.7.5 0 .4.7l.9 2.6-.2 2q.5 5.5 1.3 10.7v.4l1 12q.4 11.4 1 22.4.6 4.5 1.8 9.4l.1 1.2-2 14-.1.5-.3.1-2.6 2-.3.1-3.7 2.9q-.4-.1-1.3.7L371 566q-.4-.2-1.1.6l-.9 1.4-.3-.1-3 2-2.8 1.8-2 2.1h-.2L359 575q-.4-.2-1.1.6l-.9 1.4-.3-.1a57 57 0 0 0-7.6 5.2c-7.3 4-10.3 3.8-16.3-2.2l-54.9-55.2c-6-6-6.3-10-1.6-17.2q12.5-19.1 24.6-38.7a9 9 0 0 0 .9-7.2q-10.2-23.9-21.2-48.4l-2.5-3.4q-3.5-1.6-6.5-2.5l-36.5-8-2-.3q-9.6-1-13.9-8.4v-.8c0-1 0-1.4.3-2.2q0-3.9-.4-8 0-1 .3-2 1-11.5 1-22.6-.2-5.4-1.3-11.3-.1-1.7.4-2.8 1.2-.7 1.3-1.2-.2-15.2-.8-30.4c-.2-5.4.8-10.2 4-14.5l.4.1q3.6-1.2 7-2.7 15.4-3.1 30.4-6.4c5.5-1.2 10.9-3.2 16.3-4.8l1.2-1q1.4-2.9 2.2-5 .4 0 .6-1.2l1.2-4.8h.2q.7-1 1-2 9-19.3 17.6-39c1-2.1.3-5.9-1-8q-12-18.2-24.2-36.2c-4.7-7-4.2-11.6 1.9-17.6l39.4-39.9 1.1-1.3 3-2.7 1-1.2 5-4.7 1.1-1.3c11.9-10.6 11.8-10.5 25.2-1.2l33.8 22.9c3.6 2.4 6.6 2 10.6.3 13.4-5.8 27-10.8 40.6-16.2 3-1.2 5.8-3 9.3-4.7 1.8-2.6 3.4-4.6 4-7l6-24 6-23.3h.3l1.1-1.1q.7-.4.8-1l.3.2 2.7-1h81q2.5-.2 4.9-.7h.8l2.3 1.2c5.9 5.3 5.5 13 7.6 20.3q-1 1.7-1.1 2.3 1.4 7 3.4 13.8c1.6 4.8 3.8 9.4 5.7 14 1.2 6.3 5.1 9.2 11 11.3q20.9 7.7 41.2 16.4c3.6 1.6 6.5 1.7 9.8-.6l38.4-25.9c8.2-5.5 11.3-5.4 18.4 1.6a6043 6043 0 0 1 54.3 54.4c5.5 5.6 5.6 8.6 1.3 15.4q-11.6 18.3-23.6 36.5c-2.6 4-2.4 7-.4 11.4q10 21.4 18.9 43.4c2.4 6 5.3 9.4 12.1 10.6a567 567 0 0 1 42.8 9.4q2.5 1.5 4.3 2.2.5-.1.8 1c.7 4.6 2 8.8 1.9 12.8-.4 10.8-2.6 21.5-1.9 32.1.7 9.7-.8 19.3.8 29 1 7.3.3 14.8.4 22.2h-.2l-.9 1h-.2l-.8 1h-.1q-4.9.1-9.3.7c-2 .3-3.7 1.6-5.7 2-3.8.7-7.7.8-11.4 1.6-.7.1-1 2-1.5 3.2a4 4 0 0 1-1.9 0q-2.7-.4-4.5-.2c-3.4.4-6.9.6-10 1.6s-5.8 2.7-8.6 4h-.3l-1.7 1.2q.1.4-1 .9l-1 1h-.3a72 72 0 0 0-5 8.9c-2.8 5.9-5.8 11.7-7.7 17.9A57 57 0 0 1 722 459q-5 5.9 2 10v.3l2 3.6v.3q3 6.3 6.5 11.8c1.6 2.4 3.8 4.5 5.7 6.8l-.1.4q1 1.6 2 2.7l-.1.4q-.1 5.7 5 6.6v.4q1 2 2.2 3.5l-.2.4c.1 1.4-.1 3.2.5 3.6 3.8 2.5 2.5 5.7 1.6 8.9l-2 5.5h-.4l-.8.9h-.2l-.8 1h-.2l-.8 1h-.1c-2.4.5-4.4 1-3 3.8q-1.4 1.8-4 4-1.8 1.3-2.7 2.3h-.4c-2 1.2-3.6 2.8-5.6 3.5-4.1 1.5-5.3 4.5-5.1 8.5q.1.4-1 .9-.9.7-1 1h-.3l-.8 1q-2 2.3-4.9 4.8c-1.5.3-2.6.1-3 .6-3.9 4-7.3 8.5-11.5 12-6.4 5.3-10.7 14.5-21.3 12.7q-.6.2-1.3.7-19-14-38-29c0-1.8.1-2.8.5-3.8.7-.1 1.7-.3 1.7-.6l.8-13 3-35.9 1-18 .2-1.5q-.1.2.4.3l1.3-.6 1-.8.2-.2.8-.9.2-.1q.7-1 1-2v-.7l1.6-1.2q1-.6 1.3-1h.2a10 10 0 0 0 1-2.9h.8q1.4-1.5 2-3 7.5-11.1 15.7-22.8 1-1.4 1.3-2.3h.3q5-9.6 9.6-19h.2q4.2-8.9 7.2-17.6c1.2-3.6 1.3-7.5 1.9-11.2q.4-2.2 1.6-4.8 1-1.5 1.2-2.4 2.6-19.3 4.9-38.8c.2-1.6-1.1-3.4-1.7-5m-4.7-49.6"/>
  <path fill="#c85f39" d="m606 644.1-12.8 5.4c-16.6.2-32.4.3-48.4 0a18 18 0 0 0-5.7-1.4l-100.9-.1-10.1-.1c-8.5-2.7-14-8.5-17.8-16.7q.3-1-.4-1.2v-.2l-.8-1.8-.2-.8q.1-6.4-.4-11.9-1-11.2-2.3-22.6l-3-26.2c-.6-6.2-.8-12.5-1.5-18.7l-3.7-26.5c-.8-6.8-1-13.7-1.8-20.5 0-.7-1.3-1.2-2.1-2.2l-3.4-34.6.6-1.4.7-.7.4.5q4.9.6 9.3.6 116.7 0 233.3.3v1q0 .6-.4.8-.7 2.7-.9 5.3-1.8 17.8-4 35.8c-.7 1.5-1.6 2.8-1.7 4.1-.2 4.5.1 9.1-.3 13.6q-1.6 16.8-3.7 33.5c-.4 3.3-1.6 6.4-1.8 9.7q-.7 8.5-.7 17c0 6-4 11.8-.6 18.3-1.7 11.6-.6 23.4-7 33.5q-.5.2-1 1.1l-2 3h-.2l-.8 1h-.2l-1 1q-.3-.2-1 .6zM467 619l.4-.4.6-1.6.4-.5q.4-1 0-2.2-.6-.3.5-1.4.2-6.4 0-12.9c0-1.8-.9-3.6-1.4-5.5l.2-1.1q-.2-14.1-.8-28.2l-2.9-39c-.8-12-1.2-24-2.2-36-.1-1.8-2.1-3.4-3.6-5l-.4-.7q-.4-.4-1-2l-2.9-1.4-.2-.5c-2.3-3-4.5-2.6-7.3.3l-3.5 1.9h-.7q-1 1.1-3.3 2.5l-.8 1.7-.5.4c-.5 1.1-1.3 2.2-1.3 3.2q.7 17.4 1.8 34.7c.2 4 1.1 7.8 1.9 12.4q.1 1-.4 2.8.4 5.6 0 12c2.3 6 .2 12.5 2 18.8 1.2 4.7.2 10 .4 15.2q.5 12.7 1.4 25.5c.1 1.7 1.8 3.3 2.7 5.5q.5.6 1 2.2c2.6 6.2 10.8 7.9 15.1 2.7l2.2-.5 1.6-2 .3-.2zm101.5-134.9-.5.9-.5.3-.6 1.7-.6.4-1.2 5.3c-.5 8.1-.8 16.2-1.9 24.5-.5.6-1.3 1.3-1.3 2-.1 3 .2 6 0 8.9-.7 7.5-1.9 14.9-2.4 22.4-.3 4.4.2 9 .4 14.4q.2 5-.7 10.1c-.4.7-1.2 1.4-1.3 2v14.4l-1.4 21.2c0 1.5 1.6 3 2.5 4.8l.1 1.1q.9 1.2 2.7 2.5l1.2.1.3.6c4.4 2.4 8.7 2.9 12.7-.7h.6q.3-.5 1.1-1.1l.8-.8 1-.4c4.4-5.5 3.2-12.3 4.3-18.5.9-5.5.7-11.1.7-16.7 0-1.6-1.3-3.1-1.8-5 0 0 .2 0 .3-1l-.2-1.2.7-.8 2.4-24c.2-2.6-.7-5.1-1-8.3q0-1.1.9-2.4c2.5-4.6 1.7-9.3.1-14.6q0-.5 1-1.5l1.6-18c0-.1-.8-.4-1.4-1.4q.4-1.7.5-3.4c0-5.8 2-12-2.8-17.6l-2.2-2q-5.4 0-10.6-.3h-.6l-.4 1-.7-.2-1.3 1.2zm-64.4 135.4q.4.2 1.1 1.2l3 1.9 10-.5c2-2.8 5.2-5.4 5.6-8.4.8-7.5.3-15.2 1-22.9l.7-1.1-.5-42.3c0-1.5-.6-2.9-1-5q-.1-.6.6-2.1l.3-48.8q-.1-1.3-1.6-3.1c-4.5-9-12.7-10.4-19.7-3.3l-.7 1.1q.1.1-.4.8a9 9 0 0 1-1.6 2.6q-.6 2.6-.8 5.2V609c0 1.3 1 2.6 1.8 4.7l2.1 5.3z"/>
  <path fill="#656766" d="M614.1 296.9q9 16.7 17.3 33.9c-13.7-9.6-27.3-19.1-40.4-29.4a75 75 0 0 0-36-14.8c-3.2-.5-7-1.2-9.8-.2-8.2 3-15.7 7.2-19.2 16.5q-1.7 7.8-2.2 15.2c-.2 2.4 1 4.9 1.8 7.7q.8 2.2 1.3 4.4l-.1 1q-.3.5-.5 2c.2 5.7.5 10.7.4 15.9a31 31 0 0 1-27.6-.5q0-9 .2-17.7c.8-6.8 1.7-13.5 1.5-20-.6-15-10.2-24-25-24a62 62 0 0 0-37.7 12.5L394 331.7q4.3-9.4 9-18.8 4.8-9.1 10.5-18.7l2.1-3.2.8-1.1 2-3.1c0-.1-.3-.2.1-.3q.7-.9.6-1.4h.4q.7-.5.7-1h.2q.7-.6.8-1h.2l.8-1 .2-.2 1.4-2 2.8-2q5-5 10-9.4 7.2-6 15-11.6l18.8-9c6.2-1.3 12.5-2.9 18.8-4q32.3-5.5 63.6 3.5l3.9 1q9 4.4 17.6 9l17.2 13 2.6 1.7v.2q1 1.2 2.1 2.2l3.8 3.7q1.1 1.7 2.5 3l1.4 1v.2l1.3 2 4.8 6 3 3.8z"/>
  <path fill="#c85f39" d="m576 431 .2.8q.6 1 1 1.2.4-.1.8.9 1.6 1.4 3.1 2l.1.4q6.3.5 12.4.6.3-.2 1.4.3c4.4 2.7 8.2 3.2 12-.1q0-.2 1 0c3 .7 5.3 1.6 7.7 1.7 4 .2 8.4 1.5 11.3-2.9h.2l.7-1.2c6.5-4.9 7.1-12.3 9.2-19.6q1.9-.3 2.9-.2l3 .1 2-.1q3.3 0 7.7.5c3.6 1.1 8.5-.6 8.2 4.5-.5 7.7-2 15.3-3 23l-.2.1-.8 1h-.2q-.9.6-1.2 1l-3.7 1.5c-1 .3-1.4.3-2.2 0q-3.4-.5-6.3-.5H416q-23-.2-46-1.2-1.3-.6-2.2-.7-.4.1-.7-1-.6-1.5-1.1-2v-.5c-.5-4.1-1.2-7.8-1.9-12q0-1.5.3-3 .9-4.6 1.3-9l.5.1c2.3-.4 4-1 5.9-1.5q.1-.2 1-.3h1l.9.5q3.2 1.4 5.8 1.4c3.9-.3 7.4 0 10 3.2q3.6 6.6 7 13.9.8.8 1.4 1v.4c2.3 1.4 4.5 3.4 6.8 3.5q10.5.6 20.8 0c1.4 0 2.7-1.3 4-2l1.5-1.2.8-.7 1 .4c3.8 2 7 2.7 10.1-.1l.3.1q2.2-1 3.7-2.2l.2-.1.8-1h.2q.6-.4 1-1l2-2.6 3.8-8.2c.8-3.6 2.8-4.3 5.9-4.3q10.4-.2 21.3-.9 1.6 0 3 .3 24.7.5 48.9.6.8-.1 2.2-.9 2.5-.1 5 .4 7.3 0 15-.4 1.5 0 2.9.3 2 .2 4-.3 1.7-.1 3 .4 1.6 2.5 2.7 4.7l3.2 6.8v.3q.4 1.1 1 1.8l-.1.3 1.6 1.6z"/>
  <path fill="#e9e1d7" d="m393.6 332 44.5-32.6a62 62 0 0 1 37.6-12.4c15 0 24.5 8.8 25 23.8.3 6.6-.6 13.3-1.6 19.9q-1.1-1-1.5-2 .2 0 0-.6l-6-9.6-.3-.3-4.3-4-.4-.6c-11.1-7.3-24.4-6-36.8 3.3h-.2l-2.8 2h-.2l-7 5-2 1.5-.4.2-3.6 3q.3 0 0 .3-1.7 1.5-2.6 3l-5.3 4.6-10 10.4-8.8 7.9-3.4 3.7-.1.2q-.5.6-1.4 1.2-5.2-.4-10.2-1.3-.9 0-1.3.4l.3-.3q-.5-1.6-1.8-2.8l-10-13q7-5 14.6-11m132.7-29.3c3.2-9 10.7-13.2 18.9-16.2 2.9-1 6.6-.3 9.9.2 13.1 2 25.2 6.4 35.9 14.8 13 10.3 26.7 19.8 40.5 29.7l11.7 8.7c5.4 4 5.4 4 0 9q-2.6 1.6-4.1 3.4a80 80 0 0 1-5.8 5.7q-1 .7-1.2 1.2 0 .3-.8 1.4-4.1-.9-7.6-2.3v-.2l-1-.8v-.2l-.9-1v-.2q-1-1-2-1.7-3.2-3-6.8-7a9 9 0 0 0-2-2l-.7-.4-1.2-.9-9.2-9.4-1.4-1.3-18.9-14.4c-1.2-.9-2.8-1.3-4.4-2.6q-.1-1.7-.6-2.2c-7.7-7-25-9-33.7-4-.4.3-.2 1.7-.4 2.6h-.3q-.8.3-1.1.8.1.4-1 .7c-1 .6-1.2 1-1.6 1.5q0-.2-.2-.1-.8.6-1 1h-.3q-.9 1-1.4 2.1h-.5a29 29 0 0 0-3.2 5.1q-.1.5-.7.2a41 41 0 0 1-4.1-4.3q.5-8.8 1.2-17"/>
  <path fill="#e7e0d6" d="m474 396-2.6-2.3c-6-7.9-3.2-15.3-.3-22.6l.2-.2q.7-1 .9-1.9h.1q1.1-1.6 1.8-3l.2-.1q.6-1 .8-1.9c3.5-5.9 9.7-8.5 15.9-11.6 5.9-2 11.1 0 16.3.6 9.8 1.4 19.7-3.6 29.4 1q.7.1 1.5-.1v.3q1.5 1 3 1.6v.3q1.1 1 2.3 1.4v.3c2.6 3.8 5.4 7 7.6 10.6a31 31 0 0 1 3 25.7l-.1.1-.8 1h-.2l-1 1.3q-.2.7-1.2.6-2.6 1.5-4.7 3.1h-.3q-14.5 1.9-28.2 4c-.6.1-1 1-2 1.7q-1 .1-1.7-.4-1.4-.9-2.6-1.2l-26-3.5c-3-.5-5.7-1.7-8.4-2.6l-.2-.2q-1.2-1-2.2-1.3l-.1-.3v-.6zm53.4-7.4q.1-.7 1.3-1.7 5-5.4 1-12.1.2 0 0-.9l-.7-1.3-.2-.9-1-1-.5-.8q-.4-.2 0-1.3c-.8-.5-1.5-1-2.4-2.3-4.4-1.4-8.7-3.3-13.2-4.1-2-.4-4.3 1.4-6.5 2h-.5l-1.7.8-.5.1-1.5 1-.3.2-.9 1.5q-.8 1-2.3 2.4-.5 1-2 2.2l-.4 9.6v.5q.4.7 1.6 1.7 0 .7.4 2.3.5.8 1.4 1.5.4-.1.8 1l1 1.5q1.3.6 3 2.1c1.4.7 2.6 1.8 4 2 5.8.3 12.2 2.3 17.3-3.7l1.8-1.2z"/>
  <path fill="#e5ddd2" d="M416 290c0 .4 0 .6-.9.9-1.7-2.5-3.4-4.9-4-7.5-1.3-7-2.8-14.3-3.2-21.5a141 141 0 0 1 1.3-21.5c.6-5.3 2-10.4 3-15.6q-.1-.2.6-.9.7-.8.7-1.4h.2q.4-.4.5-1-.1-.1.5-.1c2.6-.3 4.8-1.2 6.7-.8q7.9 1.7 15.5 4.5c5 1.8 9.5 4.5 14.3 6.8v.3l2.9 1.8v.3l5 3.7q5.5 4.4 11 9.6-8.9 5-18.7 9l-18.2-19q-.6-.4-1.4-.5-.5 0-.8-.4l-1.2-.6q-.5 0-.8-.5c-5.7-3.6-7 1.1-9.4 4.5-1.1 5.6-2.7 11.3-2.4 16.8.4 5.7 2.7 11.3 4 17v.2l1.1 3.7-.1.3-.1 4h-.3l-.8 1h-.1l-.8 1h-.2l-.8 1.1h-.3l-.8 1.4s.3 0 0 .3q-1.4 1.7-2 3.2"/>
  <path fill="#e7e0d6" d="M574 257q-8.4-4-17-8.7 7.5-7.3 15.8-14.1l.7-.2v-.4h.3l1-1q0-.4 1.1-.7 1.3-.8 1.7-1.4.1.2.5.3l2.5-2.3h.3q.7-.3 1-.7l.3.1q6.3-3.2 12.1-6.6h.7q1.1-.1 1.9-.5h.3l12.9-.9.1.2 1.3.8h.5l.2.8.9 1.2v.3l1.1 1.7v.2l2.1 4.8v.3q0 2.3.2 3.9a86 86 0 0 1 1.6 32q-1.6 9.6-2.8 19.1l-.2.2q-.7 2-1 3.8h-.2l-4.2.9q-2.2-2.6-4.6-6-.9-1.5-1.4-2l.2-.2 1.3-5.2c3.7-12 5.5-24.2 2.5-36.5-.6-2.7-3.7-5.1-6.2-6.9-1-.6-3.5 1.2-5.5 2.1z"/>
  <path fill="#676867" d="M620.6 402.4c4.7 5.6 8.7 11.2 6.3 18.7a16 16 0 0 1-2.7 5.3c-3.5 4.3-8.6 3.3-10.3-2-.9-2.7-1.2-5.5-2-9.8-1.8 7.2-2.2 14.6-10.2 14.1-8.2-.5-4.6-8-6-13.9-1.5 3.4-2.2 6-3.7 8.1-1.6 2-4.1 5-6 4.8s-4.6-3.1-5.5-5.4c-4.5-11.8 5.5-26 18.8-27.2a26 26 0 0 1 21.3 7.3M413 417.7c-.3 2.2-.2 4.2-1 5.8-.8 2-2.3 5-3.5 5a9 9 0 0 1-6.6-3c-4.6-6.2-3.8-14.4 1.8-21.2 6.5-7.9 15.2-11 25-9 9.5 2 15.2 8.5 17.7 17.8q1.8 7.1-2.8 12.7c-2.8 3.3-5.8 3-7.9-.7-1.7-3-3.1-6.1-5.7-9.1 0 2.3.4 4.7-.1 7-.5 2-1.6 4.9-3 5.5-2 .7-5.7.2-6.8-1.3-2.7-3.2-4.2-7.2-6.2-11h-.5z"/>
  <path fill="#051d28" d="M649 448c-1.8.3-3.5 1-5.2 1H378.4c-2.3 0-4.6-1.2-6.7-2q15.3 0 30.3.5l1.5-.2q61 0 121.5.2l1.5-.2c5.5 0 10.4 0 15.5.2l1.5-.2q5.5 0 10.5.2l1.5-.2 69.5.1 1.5-.1c7.2 0 13.8 0 20.6.2z"/>
  <path fill="#162229" d="M393 461.8c1.6-.6 3.1-1.7 4.6-1.7h233.7a8 8 0 0 1 4.1 1.5q-64.1.5-127.6.3zM325.6 324l.4-3.1.3-4.9.2-.2a110 110 0 0 0 1.7-9.3l8.8-26.1c0 1.8.1 4.2-.6 6.2a132 132 0 0 0-9 42.4c-.2 13.8-1.3 27.7 0 41.4 1.5 15.3 4.8 30.5 11.3 44.8.4 1 0 2.3-.3 3.6q-6-20-11.7-41.4L325 372v-1.2l-1.2-37.6.5-1q1-4.4 1.3-8"/>
  <path fill="#f6713e" d="M542 447.3H401.8l-30.3-.7-1.4-1q-.3-.4-.2-.5c15.3.3 30.6.9 45.9.9h227.4q3 0 6 .7.2.4-.6.4l-1.8.2-20.6-.1-1.4.1h-83"/>
  <path fill="#e7e0d6" d="M463.1 339.6q-.9-1.3-2.1-3.7.3-4.4.8-7.9l5.3-3.9 3.9-.3c4.3.4 7.5 2.8 7.5 7 0 3.3-1 7.5-3 9.7-2.6 2.4-6.8 4.4-10.9.6z"/>
  <path fill="#e9e1d7" d="M559.9 324.6q2.4 2.2 5 5.5 0 4.5-.6 7.9-3.6 7-11.5 3.9-1.2-1-1.7-1.1l-2.6-3q-1.1-2.3-1.6-3.8l.1-2q.4-2 .9-3 2.6-2.4 6.2-5 3.4.2 5.8.6"/>
  <path fill="#e5ddd2" d="m623.8 358.5 7.4 2.4 6-.7a80 80 0 0 1-29 20.6l-4.5-.3 3.3-4.6c2.8-2 6-3.6 8.3-6q4.6-5.2 8.5-11.4"/>
  <path fill="#f6713e" d="M392.8 462h242.7c.5 0 .5.6.5.8q0 .2-.4.2H401.7q-4.4 0-9.3-.5-.2-.4.4-.6"/>
  <path fill="#e2683b" d="M394.2 499c.7.6 2 1.1 2 1.8.7 6.8 1 13.7 1.8 20.5 1 8.9 2.6 17.6 3.7 26.5l1.6 18.7 3 26.2q1.2 11.2 2.2 22.6.4 5.5.4 11.7-2-11-3.5-22.6l-7.6-69.5-2.7-17.4.4-.5a381 381 0 0 0-1.3-18"/>
  <path fill="#162229" d="m542 415.1-5-.1h-81.1c1.5-.7 3-2 4.6-2h105.8c1.4 0 3 .9 4.1 1.7q-1.8.5-3.4.4l-3-.1-4 .1-3.1-.1zm72.2 220.8c6.1-10.1 5-22 6.8-34l4.1-38.4L631 509c.6 1.6 2 3.2 1.7 4.7-1 7.8-2.6 15.5-3.4 23.4-.8 7.7-.7 15.6-1.5 23.4s-2.3 15.6-3.2 23.4c-.6 5 .5 10.3-1 15-3.5 11.6-.5 24.5-7.3 35.3q-.7 1-2.1 1.7"/>
  <path fill="#e2683b" d="M428.4 648H539q2.8.1 5.4 1.5-19.4.5-38.7.1l-2.2.2-40.8.1q-14.9-.1-29.8-.5z"/>
  <path fill="#e5ddd2" d="M390.4 359h1.6l10.2 1a5 5 0 0 1 1.7 1.2l2.1 3 12.2 11.8q1.1.7 2 .9-.2 0 0 .1l1 .7.1.3.9 2.4q-2.9 0-5.3-.3l-.1-.1q-.7-.5-1.2-.2-.3 0-.3-.6-1.3-.7-2.5-1v-.2q-1.1-.7-2-.9.2 0 0-.2l-1.9-.9v-.3q-1.7-1-3.1-1.4l-.1-.2q-1-.7-1.9-1v-.2q-.9-.7-2-1l-.7-.1-5.1-3.8-1-1.1-2-1.4-3.3-4.7z"/>
  <path fill="#e2683b" d="M805.4 392.9c-.4-7.2.4-14.7-.7-22-1.6-9.7-.1-19.3-.8-29-.7-10.6 1.5-21.3 1.9-32 .1-4.1-1.2-8.3-1.8-12.7 4.6 3.7 2.7 9 3 14.6l.1 1.2-.2 2.1.2 49.9-.1 4 .1 4v5.9q-.5 6.9-1.7 14M631 508.7l-10 92.8c-3.5-5.6.5-11.4.5-17.4q0-8.5.7-17c.2-3.3 1.4-6.4 1.8-9.7q2-16.7 3.7-33.5c.4-4.5 0-9 .3-13.6 0-1.3 1-2.6 2-4.1q.7-.3 1 0l.1.8z"/>
  <path fill="#162229" d="m219.1 341-.1 3.1v36l.2 7.8-.1 1.8c-.7-2-2-4.3-2-6.6l-.1-53c-.1-8.8-.8-17.6-1-26.5 0-1.1 1.5-2.3 2.7-3.1q.4 20.5.4 40.5"/>
  <path fill="#051d28" d="M433.3 649.8q14.6-.2 29.5.1h41l2.2-.1a8690 8690 0 0 0 87 0c-1.4.4-3.3 1.2-5.2 1.2H438.3q-2.4-.2-5-1.2"/>
  <path fill="#0f1f28" d="M461.3 171.4a181 181 0 0 1 78.2-4.6l10.4 1.8c-7.7-.4-15.6-1.4-23.5-1.9-6.2-.4-12.6-1-18.8-.3-14.5 1.5-29 3.6-43.6 5.4q-1.1 0-2.7-.4"/>
  <path fill="#051d28" d="M471 57.8c1.4-.6 2.8-1.7 4.2-1.7H551q2 .1 3.4 1.3-13 .4-25.4 0l-1.5.2-13.7-.1-3.2.2-1.8-.2q-2 0-4.3.3z"/>
  <path fill="#e2683b" d="M724 468.6q-7-3.6-1.9-9.6a57 57 0 0 0 10.9-21c1.9-6.2 5-12 7.6-18a66 66 0 0 1 5.2-8.8l-22 51.1c-.7 1.7 0 4 .2 6.4"/>
  <path fill="#141516" d="M514 405.9h2.1c10.8-.6 20.9-1 30.1-5.7h.2l1.6-.3c-3.8 5.5-10 5.9-15.6 6.9q-8.1 1.4-16.4.9-14.4-.8-28.8-2.3-1.5-.2-2.8-2.2 15 .9 29.6 2.7"/>
  <path fill="#eee9e3" d="M412 225c-.9 5-2.2 10.1-2.8 15.4a141 141 0 0 0-1.3 21.5c.4 7.2 1.9 14.4 3.3 21.5.5 2.6 2.2 5 3.7 7.6q-.2 1.5-1.5 2.9a333 333 0 0 1-6.4-21V240z"/>
  <path fill="#162229" d="m640.3 550-.5 3.5c-2-3.2-2-6.7-1.2-10.9 1.4-8.1 1.1-16.6 1.6-24.9l1-10q.9-10.6 2-21.1c.1-.8 1.1-1.5 2-1.9q-2.2 33-5 65.3"/>
  <path fill="#e2683b" d="M678.3 583.2q.4-.9 1-1c10.6 1.8 15-7.4 21.3-12.7 4.2-3.5 7.6-8 11.5-12 .4-.5 1.5-.3 2.7-.5q-11.7 12.7-24.4 25.2-5.3 5-12 1"/>
  <path fill="#162229" d="M384 542.9v-1.2l-3-31.8v-2l.1-7.9c1 1.2 2.5 2.4 2.6 3.6.5 6 .2 12.1.8 18 .8 9 2.4 18 3.2 26.9.2 2.3-1.3 4.8-2.5 7.3q-.6.1-.4-.5z"/>
  <path fill="#e2683b" d="M640.5 550.1q2.3-32.5 5.1-65.4l.7-1.4.6-.5q-.4 9-1 17.8l-2.9 36-.8 12.9c0 .3-1 .5-1.7.6"/>
  <path fill="#141516" d="M614.3 296.7q-.9-.8-1.3-2.8.6-2.8 1.3-4.8l.1-.2q.7-2 1-3.7-.2 0 .1-.2 1.2-2 1.5-4l3.2-35c.8 1.3 2.5 2.7 2.4 4a647 647 0 0 1-4.2 31.3c-.8 5.1-2.5 10.1-4 15.4"/>
  <path fill="#eee9e3" d="M554.2 394.1c2.4-9 2-17.6-3-25.7-2.3-3.6-5.1-6.8-7.4-10.4q1.3-.1 2.2.1c4 7.7 8 15.4 12 24l-1 7.9-1.5 2.6z"/>
  <path fill="#e76a3b" d="M464.5 62q-2.7 11.5-5.7 23.2l-6 24c-.6 2.4-2.2 4.4-3.7 6.8q5.7-23 12-46.2 1.2-3.9 3.4-7.8"/>
  <path fill="#eee9e3" d="M451 231.6c-4.6-2-9.2-4.7-14.1-6.5q-7.6-2.8-15.5-4.5c-2-.4-4.1.5-6.5.7 3.3-5.4 8.5-3.5 12.6-1.8 8 3.3 15.6 7.8 23.5 12"/>
  <path fill="#0f1f28" d="M277.6 281c-5 1.6-10.4 3.6-16 4.8q-14.7 3.3-30.7 6.4l-3.9.7c2-1 3.8-2.3 5.9-2.7q22-4.7 44.7-9.2"/>
  <path fill="#f6713e" d="M470.8 58c11.2-.2 22.2-.2 34-.1l4.3-.2 2 .1q2 0 3-.2h15l25.4.2q.8 0 1.1.4-2 .6-4.6.7h-80.6q-.4-.4.4-1"/>
  <path fill="#141516" d="M450.2 317c12-9.4 25.3-10.7 36.2-3.4-1.7 0-4 .4-5.5-.6-7.6-4.9-14.7-1.4-22 1z"/>
  <path fill="#162229" d="M235.2 399.7q18 3.5 36.3 7.6 3 .8 6.3 2.4-4.6-.3-9.5-1.4-16.5-4-33.1-8.6m158.9 98.9c.6 6.2 1.1 12 1.5 18.3-1-2.5-2.1-5.5-2.4-8.5q-2.2-21.2-4-42.5 0-.7 1.2-1.7 2 16.8 3.7 34.4M634.9 465l.3-.8.6-1.3.2.1c.9 1 2.4 2.2 2.3 3.1-.5 4.4-1.8 8.7-2.3 13.1-.6 5.1-.7 10.3-1.2 15.4-.1.8-1.2 1.6-2.3 2q1-16.1 2.4-31.6"/>
  <path fill="#141516" d="M406.6 240.1q.4 15.8.3 32.5c-.8-.2-2-.8-2.1-1.5-2-10-2.8-20 .3-30q.3-.5 1.5-1"/>
  <path fill="#eee9e3" d="M538.1 353.7q-.7.4-1.4.2c-9.7-4.5-19.6.5-29.4-.9-5.2-.7-10.4-2.7-16-.7q.8-.8 3-1.7l4.7-1.6q13.4 6.2 28 .2 5.2 1.6 9.4 3.3l.3.2 1.3.5z"/>
  <path fill="#e76a3b" d="M701.1 344.5c.7 1.2 2 3 1.8 4.6q-2.3 19.5-5 38.8-.1 1-.8 2.3c.9-8.2 2.2-16.7 3-25.3.7-6.6.7-13.3 1-20.4"/>
  <path fill="#eee9e3" d="M540.8 312.4c-.1-.8-.3-2.2.1-2.5 8.7-5 26-3 33.7 4q.5.5.4 2l-7.6-3.4c-8.8-5.1-17-5-25.4-.5q-.5 0-1.2.4m79.3-66.8-3.1 35.5q-.3 1.8-1.4 4a260 260 0 0 1 2.5-19 86 86 0 0 0-1.6-32 10 10 0 0 1 0-3.6q2 6.1 3.6 12.5z"/>
  <path fill="#e2683b" d="M425.4 184c.2-.7.5-1.9 1.3-2.2l31.6-12.3c.6-.2 1.5.6 2.5 1.1a1368 1368 0 0 1-35.4 13.4m350 218.5c.1-1 .4-3 1-3.1 3.8-.8 7.7-1 11.5-1.6 2-.4 3.8-1.7 5.7-2q4.4-.6 9.3-.7c-1.2 1-2.7 2.2-4.3 2.6q-11.3 2.5-23.2 4.8"/>
  <path fill="#eee9e3" d="m514 405.5-29.7-2.6q-3.4-1.1-7-3.2-.6-1-.5-1.4c2.8.8 5.6 2 8.4 2.5l26 3.5q1.4.2 2.7 1.2"/>
  <path fill="#e76a3b" d="M219.4 340.9q-.4-19.9-.4-40.5 0-.6.3-1l.6-1.4.4-.7.9-1.2h.2l1.2-1 1.1-.2c-3 4.2-4 9-3.8 14.4q.6 15.2.8 30.4-.1.4-1.3 1.2m475.3-42.4c1 1.7 2.6 3.8 3 6q2.1 16.8 3.7 34.1-3.5-19.5-6.7-40.1M430.4 436.9c-1 .6-2.3 2-3.7 2q-10.5.4-20.8 0c-2.3-.2-4.5-2.2-6.8-3.7 5 2.5 10.3 3.8 15.8.6.7-.4 1.8-.1 2.7 0z"/>
  <path fill="#0f1f28" d="M658.2 442.9c.7-7.7 2.2-15.3 2.7-23 .3-5.1-4.6-3.4-7.7-4.4 5.1-2.6 9.4-1.2 9.4 3.6 0 7.5-1.6 15-2.6 22.5 0 .5-1 .8-1.8 1.3"/>
  <path fill="#e7e0d6" d="M606.6 376q-1 1.9-2.9 4.5 2 0 4.2.4-6.2 2.4-12.8 4.4l-.6-1.7z"/>
  <path fill="#e76a3b" d="M634.6 465.1q-1 15.4-2.4 31.5c-.1.8-.2 1.2-.7 2.2q-.5 4-.6 7.2h-.7q1.6-17.8 3.5-35.6.2-2.6.9-5.3m-60.1-355.5c-1.8-4.3-4-8.9-5.6-13.7q-2-6.8-3.4-13.8 0-.7 1-1.9 4 14.3 8 29.4"/>
  <path fill="#e2683b" d="M695 395.4c-.4 3.4-.5 7.3-1.7 10.9q-3 8.8-7.2 17.5 4-14 9-28.4"/>
  <path fill="#141516" d="M431 384c-.8.6-1.7 1.9-2.4 1.7q-7-1-13.6-3c-1.6-.5-2.6-2.6-4-4.4q0-.5.4-.4l1.5.3.1.2q1.2.8 2.3 1.2l.4.3 1.2.3.2.2q7.1 2 13.9 3.6m111.2-71.8a22 22 0 0 1 24.8.4q-2.7.1-5.6-.4c-5-1.5-10-2.6-15.2 0-1 .6-2.5.2-4 0"/>
  <path fill="#051d28" d="M807.3 364.6q-.4-24-.3-49.1c.3.1.9.7.9 1.3q0 23.7-.6 47.8"/>
  <path fill="#141516" d="M620.4 242.9q-2-6.1-3.8-12.8c-.2-.3-.3-.2-.3-.6l-2.1-4.7v-.2l-1.1-1.7v-.2l-.1-.7c.7.2 2 .2 2.2.7 2.5 6.2 6.7 11.8 6.5 19q-.1.4-1.3 1.2"/>
  <path fill="#e2683b" d="M750.4 408c2.4-1.3 5.1-3 8.1-4 3.2-1 6.7-1.2 10-1.6q2-.2 4.3.3-10.7 2.8-22.4 5.3"/>
  <path fill="#141516" d="M612 220.6q0 .5-.6 0l-1.4-.7-.1-.3c-4.9-2.8-9-.4-13.2 1.2h-.1l-1.9.4-.7.2-2.9 1c3.4-5.8 9.2-5.3 14.7-5.7 3-.2 5.8-.6 6.2 3.9M470.8 371.1c-2.6 7.3-5.3 14.7.3 22.5-1.5-1.7-4.5-3.5-4.7-5.7-.7-5.9-1-12 4.4-16.8m65.7-18.9q-4.4-1.2-9.1-3.1-.9-7.6-1.1-15.6l1.7 5.8c.9 3.8-.7 9 6 9.3.9 0 1.7 2 2.5 3.6"/>
  <path fill="#e2683b" d="M738.2 491.4c-1.8-1.9-4-4-5.6-6.4q-3.5-5.5-6.5-11.8 6 8.6 12.1 18.2"/>
  <path fill="#141516" d="m418 375.8-11.7-11.4q8.3 6.2 16.2 13.4-.9.1-1.2-.1l-.2-.2-1-.7-.1-.2q-1-.7-2-.8"/>
  <path fill="#e2683b" d="M747.5 524.1q.7-2.6 1.7-5.4c.9-3.2 2.2-6.4-1.6-8.9-.6-.4-.4-2.2-.4-3.6 6.4 6.6 6.6 11.8.3 17.9"/>
  <path fill="#141516" d="M499.1 348.6q-2.1 1.2-4.6 1.8c6.6-6 1.7-13.9 3-21.3q.6.5 1.2 1.8.4 8.7.4 17.7"/>
  <path fill="#e2683b" d="M723.4 549c-.5-3.8.7-6.8 4.8-8.3 2-.7 3.6-2.3 5.7-3.5Q729 543 723.4 549m-37.8-125q-4.3 9.3-9.3 19 4-9.4 9.3-19"/>
  <path fill="#e76a3b" d="M626.6 436c-2.5 4.3-6.9 3-10.9 2.8-2.4 0-4.8-1-7.5-1.7 1.2-.5 3.1-1.5 4.2-1 4.8 2.5 9.2 2 14.2-.2"/>
  <path fill="#e2683b" d="M390.7 419.6c-2.6-2.8-6.1-3.1-10-2.8-1.7.1-3.6-.6-5.6-1.3q0-.5 1.1-.5l10.8-.1c3-.1 3.8 1.7 3.7 4.7"/>
  <path fill="#141516" d="M416.1 346.9q4.2-5 9.5-10.1-4.2 5-9.5 10"/>
  <path fill="#0f1f28" d="M364 426v12l-1.8-18.3c0-.7 1-1.5 1.8-2q.3 4.4 0 8.3"/>
  <path fill="#e9e1d7" d="M421.3 378q.4-.2 1.2.1.3 0 .5.3l5.1 3.1.6.4 1.2.3q.7.5 1 1.5-6.7-1.3-13.8-3.3h5z"/>
  <path fill="#162229" d="M219.1 391q4.5 6.9 13.5 8c-6.8 1.7-13.1-1.3-13.5-8m236.8 29.5-3.5 7.6a123 123 0 0 1 3.2-13q.4-.4.3.3z"/>
  <path fill="#e76a3b" d="M606.5 437.1c-3.3 3.3-7.1 2.8-11.3.2q5.2-.3 11.3-.2m83.4-153.5q2.2 5.6 4.3 12.2-2.2-5.6-4.3-12.2"/>
  <path fill="#eee9e3" d="M590.9 222.6q1.4-.7 3-1.1l-11.7 6.4z"/>
  <path fill="#e76a3b" d="M567.3 415.4q1.1-.4 3.2-.3.5-.1.5.4l2 9q-.2 0-.2.6l.4 1.7-3.2-6.7z"/>
  <path fill="#141516" d="M461.4 328q0 3.6-.6 7.6-5.9-3.2.6-7.6m103.2 10q0-3.5.5-7.6c3.6 2.6 3.6 4.3-.5 7.5"/>
  <path fill="#0f1f28" d="M386.9 414.5q-4.8.6-10.4.4 4.5-3.9 10.4-.4"/>
  <path fill="#162229" d="M380.1 489q4.3 3.9.8 8.9h-.9v-.4z"/>
  <path fill="#e2683b" d="M364 436.4v-7q1 5 2 11.3-.1.6-.7-.1l-1.2-4.2"/>
  <path fill="#162229" d="M631 506.2q-.1-3.5.5-7c4.2 2.3 1.6 5 0 7.7q-.5 0-.6-.7"/>
  <path fill="#e2683b" d="M600.1 184.3q5.1 2.4 10.7 5.5-5.1-2.3-10.7-5.5"/>
  <path fill="#e76a3b" d="M593.5 436.6q-6 .3-12.3-.4 6-.3 12.3.4"/>
  <path fill="#141516" d="M440.2 324q2.7-2.6 6.4-5c.2 4-2.7 4.7-6.4 5"/>
  <path fill="#e2683b" d="M613 191.4q4.4 2.3 9 5.4a89 89 0 0 1-9-5.4"/>
  <path fill="#162229" d="M443.6 435.1c-2.6 2.9-5.8 2.2-9.4.2q4.3-.4 9.4-.2"/>
  <path fill="#141516" d="M527.2 331q-.5 0-.2-1.1 1.3-3.4 2.5-5.8.2 0 .5-.6.5-.8.9-.8-1.6 4-3.7 8.3m30.2 59q0-3.5.7-7.6 4.4 3.7-.7 7.5"/>
  <path fill="#e2683b" d="M745 501.6q-5-.6-4.9-6.3 2.4 2.5 5 6.3"/>
  <path fill="#0f1f28" d="M550.3 169q4.5.1 9.2 1.1-4.3-.2-9.2-1.2"/>
  <path fill="#e2683b" d="M589.1 179.3q4.1 1.3 8.7 3.5-4-1.3-8.7-3.5M364.3 425.7q-.1-3.6.1-8 .5-1 1-1-.2 4.3-1 9"/>
  <path fill="#162229" d="M648.7 481q-.4 0-1 .4-1-4.7 4-5.4.6.1 0 .9l-.9 2h-.2l-.7 1h-.2q-.8.6-1 1"/>
  <path fill="#e76a3b" d="M380 488.7v8.9q-.8-4.7-1-10.3l.8-.2zm296.8-233.3q2.2 3 4.1 7.3-2.1-3-4-7.3"/>
  <path fill="#162229" d="M573 424q-1-3.5-2-8.5c4 1.6 1.1 5.3 2 8.6"/>
  <path fill="#141516" d="M428.3 381.2q-2.7-1-5.3-2.8c2 0 5-1.6 5.3 2.8M411 378a45 45 0 0 1-6.6-3.8q.9-.1 1.4.1l.1.2q1.6 1 3 1.6l.2.2 1.8.9.2.7"/>
  <path fill="#e2683b" d="M371.6 415.1q-2 1-5.5 1.7-.1-.8 1-1.6l1.9-.3zM414.4 190a42 42 0 0 1 5.4-3.8 42 42 0 0 1-5.4 3.8"/>
  <path fill="#eee9e3" d="M459 237.7q-2.3-1.3-5-3.4 2.3 1.3 5 3.4"/>
  <path fill="#141516" d="M487 314.5q2 1.4 4.3 3.7-2-1.4-4.3-3.7m-96.2 44.2-1.3 1.9c-5-.5-1-2.5-.6-4.4q1.4.9 2 2.5"/>
  <path fill="#e76a3b" d="M683.9 269.4q1.5 2.1 3 5.3-1.5-2.1-3-5.3"/>
  <path fill="#e2683b" d="M741.2 530.8c-1.7-2.7.3-3.2 2.7-3.6q-.9 1.6-2.7 3.6"/>
  <path fill="#141516" d="M559.8 324.3q-2.3 0-5.4-.4c1.5-3.5 3.4-1.5 5.4.4"/>
  <path fill="#eee9e3" d="M639.4 352.1q1.3-1.7 3.4-3.2-1.3 1.8-3.4 3.2"/>
  <path fill="#e76a3b" d="M380 498.4q.1-.6.6-.3l.4 1.6v7.8q-.6-3.9-1-9.1"/>
  <path fill="#141516" d="M534.6 317.8c2.2 2.7-.3 2.7-2.2 2.9q.3-1.4 1.1-2.1l.2-.2q.5-.6.9-.6"/>
  <path fill="#eee9e3" d="M533.1 318.5q-.1 1-1 2.2l-.3.4q-.7.3-.6.9l-.3.5-.8.8q1.1-2.3 3-4.8m15 81.1q-.7.5-1.6.6 1.6-1.5 4.2-2.9-.2.9-.9 1.4-.7.2-1.7 1"/>
  <path fill="#141516" d="M434 328.7q1.1-1.5 3.1-3-1 1.4-3.1 3"/>
  <path fill="#e76a3b" d="M226.7 293c1.4-.3 2.4-.5 3.9-.6q-2.6 1.3-6.3 2.5.6-.9 2.4-2"/>
  <path fill="#162229" d="M352.4 580q1.5-1.5 4-3.2-1.5 1.5-4 3.2m22.9-17q1.3-1.4 3.4-3-1.2 1.5-3.4 3"/>
  <path fill="#141516" d="m554.2 394.1 1.2-1.1c2.4 2.5 0 2.5-2 3q-.4 0-.3-.2l.2-.7h.1zm-7.5-59.9q.8 1.3 1.5 3.4c-2.2 0-4-.5-1.5-3.4M550 399q.3-.9 1.1-1.7.5-.2 1.2-.8l.7-.5q-1.3 1.7-3 3"/>
  <path fill="#e2683b" d="M401.4 198q1.6-1.4 4.3-3-1.6 1.5-4.3 3"/>
  <path fill="#162229" d="M380 486.9q-.3.2-.7 0-.3-.4-.3-2v-2h.1q.6 1.8 1 4"/>
  <path fill="#0f1f28" d="M282.9 269.2q0 1.8-1 4.4.2-1.8 1-4.4"/>
  <path fill="#141516" d="M496 326q.8.7 1.5 2l-2.3-.2q.1-.9.7-1.9"/>
  <path fill="#162229" d="M611.2 640q.4-1.3 1.6-2.7-.4 1.2-1.6 2.6"/>
  <path fill="#e2683b" d="M747.3 505.4a12 12 0 0 1-2.3-3.1 12 12 0 0 1 2.3 3.1"/>
  <path fill="#141516" d="M431.3 332q.6-1.4 2-3.3-.5 1.4-2 3.2"/>
  <path fill="#e2683b" d="M803 295.7q-1.8-.4-3.9-1.7 1.8.3 3.8 1.7M658.8 468.2a9 9 0 0 1-1.7 2.7 9 9 0 0 1 1.7-2.7"/>
  <path fill="#141516" d="M470.9 323.5q-1.4.4-3.5.5 1.4-.6 3.5-.5"/>
  <path fill="#0f1f28" d="M281 275.2q-.4 2-1.8 4.5.5-2 1.8-4.5"/>
  <path fill="#162229" d="M447.8 433q-1.2 1.3-3.3 2.3 1-1.2 3.3-2.2"/>
  <path fill="#e2683b" d="M585.4 178q1.4 0 3.4.8-1.4 0-3.4-.9m140.8 294.7q-1.1-1.2-2.2-3.3 1.2 1 2.2 3.3"/>
  <path fill="#141516" d="M547.6 329q0 1.1-.6 2.7c-1.8-1-2.6-2 .6-2.7m-1.8 28.7q-.7.4-2 0l-.5-.5-1-1q1.8.5 3.5 1.5"/>
  <path fill="#162229" d="M366 570q.8-1.1 2.5-2.2-.7 1-2.5 2.1"/>
  <path fill="#eee9e3" d="M580.3 228.6q-.7 1-2.4 2 .7-1 2.4-2"/>
  <path fill="#e2683b" d="M734.5 537.2a7 7 0 0 1 2.1-2.2 7 7 0 0 1-2 2.2"/>
  <path fill="#eee9e3" d="M454 233.7a9 9 0 0 1-2.8-1.6 9 9 0 0 1 2.7 1.6"/>
  <path fill="#162229" d="M371.3 566q.6-1 2.3-2.1-.6 1-2.3 2"/>
  <path fill="#141516" d="M447.2 318.9q.7-1 2.4-2-.7 1-2.4 2"/>
  <path fill="#eee9e3" d="M541.2 355.8q-1.5-.6-3-1.6.4-.4 1.5.3z"/>
  <path fill="#162229" d="M378 482.4q.2-.3-.4-.7-.7-.9-.8-1.5l.1-.1 2.2 2.5q0 .4-.3.2zm1.3 77.6q.8-1 2.3-2-.6 1-2.3 2"/>
  <path fill="#141516" d="M473.7 366.1q-.2 1.3-1.3 2.9.2-1.2 1.3-2.9"/>
  <path fill="#e2683b" d="M411.3 192q.8-1 2.4-2-.7 1-2.4 2"/>
  <path fill="#e76a3b" d="M581 435.7a8 8 0 0 1-2.9-1.6 8 8 0 0 1 2.8 1.6"/>
  <path fill="#e2683b" d="M740.2 494.6a7 7 0 0 1-2-2.4 7 7 0 0 1 2 2.4"/>
  <path fill="#141516" d="M396 368.3q.9.2 2 1.2-1-.1-2-1.2m145.1-12.5-1.1-1.3q.9.1 1.8 1-.5.4-.6.3"/>
  <path fill="#e2683b" d="M407.4 194.2q1-1 3.2-2.2-1 1-3.2 2.2"/>
  <path fill="#162229" d="M606.3 644.3q.3-.8 1.3-1.5-.4.7-1.3 1.5m-30.1-213.5q-.3.3-.7-.2l-.7-1.5q.8.7 1.4 1.7"/>
  <path fill="#051d28" d="M364 436.8q.5 1.3 1.1 3.8-.5-.6-1-2.3z"/>
  <path fill="#162229" d="M349.2 582.3q.4-.9 1.5-1.4-.5.7-1.5 1.4m11.9-8.5q.3-.9 1.6-1.8-.3.8-1.6 1.8"/>
  <path fill="#141516" d="M403.9 358.5q0-.8 1.2-1.8a4 4 0 0 1-1.2 1.8m87.6-39.6q.7.4 1.6 1.8-.8-.4-1.6-1.8m-53.6 6.6q.3-.8 1.7-1.6-.4.8-1.7 1.6"/>
  <path fill="#e76a3b" d="M675 253.3q.9.3 1.8 1.6-.7-.3-1.7-1.6"/>
  <path fill="#141516" d="M405.8 356.4q0-.7 1-1.3-.1.7-1 1.3"/>
  <path fill="#eee9e3" d="M541.2 356.1q.1-.4.6-.2l.4.3 1 1q-.8 0-2-1"/>
  <path fill="#141516" d="M476.9 398.2v1.5q-.9-.5-1.4-1.7.9 0 1.3.3"/>
  <path fill="#051d28" d="M807.3 372.7q-.3-1.1-.2-3.3.3 1.3.2 3.3"/>
  <path fill="#eee9e3" d="M619.9 354.4a5 5 0 0 1 2 1.4 5 5 0 0 1-2-1.4m-85.2-36.9-1 .9a6 6 0 0 1 1.4-2q.2.3-.4 1.1"/>
  <path fill="#e2683b" d="M369.8 444.8q.3.5.2.7l-2.1-1.2q.6 0 2 .5"/>
  <path fill="#eee9e3" d="M611 345.3a5 5 0 0 1 2 1.5 5 5 0 0 1-2-1.5"/>
  <path fill="#0f1f28" d="M639.8 414.7q-.8.3-2.4.2.8-.3 2.4-.2"/>
  <path fill="#f6713e" d="M469.7 58.7q-.7.9-2.4 1.3a5 5 0 0 1 2.4-1.3"/>
  <path fill="#051d28" d="m649 447.1.7-.2 2-.2q-.7.6-2.4 1.3-.4 0-.3-.2z"/>
  <path fill="#141516" d="M404 360.7q-.6.1-1.3-.7 0-.7.6-1.4.4.6.6 2.1"/>
  <path fill="#e9e1d7" d="M402 372q.9.2 1.9 1-.4.2-1.2-.3z"/>
  <path fill="#e2683b" d="M420.3 186.2q.8-.7 2.4-1.2-.6.8-2.4 1.2"/>
  <path fill="#e76a3b" d="M682.8 266.3q.7.8 1.1 2.4-.6-.6-1.1-2.4"/>
  <path fill="#eee9e3" d="M476.7 398q-.3.2-1.3-.3-.2-.5-.8-.9.9.2 2.1 1.2"/>
  <path fill="#0f1f28" d="M644.8 414.7q-.4.3-1.4.3.3-.3 1.4-.3"/>
  <path fill="#eee9e3" d="M632.4 359q0-.4.6-1 0 .5-.6 1"/>
  <path fill="#141516" d="M474.8 364.2q.2.6-.5 1.7 0-.6.5-1.7m-81.6 1.6q.5 0 1.5 1-.6-.1-1.5-1m78.8 3.4q0 .6-.7 1.8 0-.6.6-1.8"/>
  <path fill="#e76a3b" d="M466 60.8q-.2.4-.9 1 0-.5.7-1.3.2.1.2.3"/>
  <path fill="#162229" d="M647 482.5q-.2.5-.7.6 0-.7.7-1.8.3.2 0 1.2"/>
  <path fill="#e9e1d7" d="M405.7 374q-.4.2-1.3-.1-.4-.1-.5-.6.7 0 1.8.8"/>
  <path fill="#e76a3b" d="m674 251.3 1 1.4q-.5-.2-1-1.4"/>
  <path fill="#162229" d="M359.2 575q.3-.6 1.4-1.2-.2.6-1.4 1.1m23-16.9q-.4-.1 0-.7l1.4-.7.4.4z"/>
  <path fill="#eee9e3" d="M536.8 315.4q0-.5 1-1.3-.1.4-1 1.3"/>
  <path fill="#e76a3b" d="M686.7 275.4q.5.3.6 1.4-.5-.4-.6-1.4"/>
  <path fill="#0f1f28" d="M284 267.2q.2.7-.6 1.8-.1-.7.6-1.8"/>
  <path fill="#e76a3b" d="M681 263.3q.4.3 1 1.5-.6-.3-1-1.5"/>
  <path fill="#e2683b" d="M611 190.3q.7 0 1.8.6-.6 0-1.7-.6"/>
  <path fill="#051d28" d="M558.8 59.2q-.6 0-1.9-.9.6 0 1.9.9"/>
  <path fill="#eee9e3" d="M577.3 230.6q0 .5-1.2 1.3.1-.5 1.2-1.3"/>
  <path fill="#e2683b" d="M409 628.3q.4.3 1 1.5-.4-.3-1-1.5"/>
  <path fill="#162229" d="M279 411.3q.6.3 1.2 1.7-.5-.4-1.1-1.7m294.1 15.6-.3-1.7q.5.4.8 1.6h-.6"/>
  <path fill="#e2683b" d="M748.3 409.1q.3-.4 1.4-1-.2.4-1.4 1"/>
  <path fill="#e76a3b" d="M573.1 427.2q.1-.4.6 0l.4 1.5a4 4 0 0 1-1-1.5m1.5 1.8.8 1.7q-.5-.3-1.3-1.5.1-.3.5-.2"/>
  <path fill="#e2683b" d="m656 472-.9 1.8q-.4-.2.2-1.2zm19.7-28.9q0 .5-.7 2 0-.5.7-2m-77.6-259.8q.6 0 1.7.6-.6 0-1.7-.6M423.3 185l1.5-1q-.3.6-1.5 1"/>
  <path fill="#0f1f28" d="M368.8 414.7q-.4.3-1.5.3.5-.3 1.5-.3"/>
  <path fill="#e2683b" d="M366 441.3q.4.3 1 1.6-.6-.3-1-1.6"/>
  <path fill="#e76a3b" d="M399 434.7q-.6 0-1-.5.4-.2 1 .5"/>
  <path fill="#eee9e3" d="M414 221.7q.2.3-.3.8-.2-.3.4-.8"/>
  <path fill="#e2683b" d="M803.3 395q0-.2.6-.8 0 .3-.6.9"/>
  <path fill="#162229" d="M432.8 434.8q0 .2-.5.6 0-.2.5-.6m-75.7 142q0-.3.6-1 0 .3-.6 1m12-9q0-.3.6-1 0 .3-.6 1"/>
  <path fill="#e76a3b" d="M627.7 434.8q0 .3-.5 1-.2-.3.5-1"/>
  <path fill="#e2683b" d="M721.3 551q0-.2.6-.8zm83-156.9q0-.4.6-1 .2.5-.6 1"/>
  <path fill="#162229" d="M384.9 555.9q0 .5-.7 1-.4 0-.4-.5.4-.7 1-.6z"/>
  <path fill="#e2683b" d="M720.3 552q0-.2.6-.8z"/>
  <path fill="#0f1f28" d="m657.1 443.8.6-.8q0 .3-.6.8"/>
  <path fill="#eee9e3" d="M413.3 222.7q.2.3-.3 1z"/>
  <path fill="#0f1f28" d="m373.9 414.7-.6.2q0-.6.6-.2"/>
  <path fill="#162229" d="M609 641.8q0-.2.7-.8 0 .3-.7.8m1.1-1 .6-.8q0 .3-.6.8"/>
  <path fill="#eee9e3" d="M581.6 227.9q0 .2-.8.7 0-.3.8-.7"/>
  <path fill="#e2683b" d="M410 630.3q.5-.3.3.5-.3 0-.4-.5"/>
  <path fill="#eee9e3" d="M574.6 232.7q0 .3-.8 1 0-.4.8-1"/>
  <path fill="#e2683b" d="M746.2 411q0-.2.7-.8 0 .2-.7.8"/>
  <path fill="#eee9e3" d="m573.3 233.6.2.4-.4.1q-.1-.2.2-.5m39.5-11.6q.2.2.3.7-.3 0-.9-.8c-.1-.3.3 0 .6 0"/>
  <path fill="#162229" d="M450 431.2q0 .3-.7.8 0-.2.7-.8"/>
  <path fill="#e76a3b" d="M682 265.3q.3 0 .8.6-.2 0-.9-.6"/>
  <path fill="#162229" d="m448.9 432.2-.6.8q0-.2.6-.8"/>
  <path fill="#e76a3b" d="M577 432.7q-.2 0-.8-.7z"/>
  <path fill="#eee9e3" d="m474 396.1.4-.3v.4q-.3.1-.4 0"/>
  <path fill="#e2683b" d="M654.7 474q0 .3-.8.8 0-.3.8-.8"/>
  <path fill="#e5ddd2" d="M622.8 357.5q.3-.2 1 .5-.4 0-1-.5"/>
  <path fill="#162229" d="M391.9 461.8q0 .2-.6.6 0-.3.6-.6"/>
  <path fill="#0f1f28" d="m319 125.2-.7.9q0-.3.6-1"/>
  <path fill="#141516" d="M429.8 382q-.3.3-1-.1.2-.2 1 .1"/>
  <path fill="#f6713e" d="M466.2 60.8q-.2 0-.2-.4l.7-.5q.3.5-.5.9"/>
  <path fill="#051d28" d="m807.3 378.9-.2-.6q.6 0 .2.6"/>
  <path fill="#162229" d="M656 471.7q-.2.4-.7.6 0-.3.6-1.1c.3-.2.1.3.1.5"/>
  <path fill="#eee9e3" d="m622 356.3.8.7q-.3 0-.9-.7"/>
  <path fill="#162229" d="m375.8 478.9-.8-.6q.2 0 .8.6"/>
  <path fill="#141516" d="M401.8 372q.3.1.7.7-.4 0-1.3-.6 0-.3.6-.2"/>
  <path fill="#0f1f28" d="M329 115.2q0 .3-.7.9 0-.3.8-1"/>
  <path fill="#162229" d="m376 480-.1-.7q.3 0 1 .5 0 .4-.3.4z"/>
  <path fill="#0f1f28" d="m323 121.2-.7.9q0-.3.7-1"/>
  <path fill="#e2683b" d="M745.3 526.1q0-.4.6-1 0 .5-.6 1"/>
  <path fill="#162229" d="M221 296.2q0 .3-.7.9 0-.3.6-.9m-1.2 2q.1.2-.4 1-.1-.3.4-1"/>
  <path fill="#eee9e3" d="M539.4 313.2q0-.3.8-.8 0 .3-.8.8"/>
  <path fill="#051d28" d="m807.2 312.9-.1-.6q.6 0 .1.6"/>
  <path fill="#eee9e3" d="M535.5 316.3q0-.3.7-.8 0 .4-.7.8"/>
  <path fill="#0f1f28" d="m655.8 444.8.9-.8q0 .3-1 .8"/>
  <path fill="#141516" d="M531.3 321.8q-.2-.3.5-.8z"/>
  <path fill="#e2683b" d="M400.3 199q0-.2.6-.8zm344.1 328.1q-.3-.3.5-1 .1.5-.5 1"/>
  <path fill="#eee9e3" d="M598.7 333.4q.3 0 1 .7-.2 0-1-.7"/>
  <path fill="#162229" d="M222.3 295.2q0 .3-1 .9 0-.3 1-1"/>
  <path fill="#e2683b" d="M746.3 525q0-.2.6-.8 0 .3-.6.9"/>
  <path fill="#141516" d="M463.3 340q.4 0 1 1.1-.6 0-1-1.1m88 1q.3 0 1.2.6-.3.2-1.2-.6m57.9 3q.3 0 .9.7-.3 0-1-.7m-71.3 9-1-.3z"/>
  <path fill="#e76a3b" d="M323.6 333.4q.9 18 1.3 37c-.7-3.8-1.8-8.2-1.9-12.5q0-12 .6-24.5M381 510.3q1.5 15 2.9 31.2-1.2-4-1.8-8.7-.6-10.9-1-22.5M219.3 377.6q-.3-15.9-.2-33c.5 3.1 1.3 6.7 1.3 10.4q-.1 11-1 22.6m165.4 177.7q-.5.6-1.1 1l-1.4.8q.6-6.5 1.7-13.7zM328 306.9q-.4 4-1.6 9 .4-4.2 1.6-9m-2.8 17.3q.1 3.5-.8 7.7 0-3.5.8-7.7m.8-8q.2 1.8 0 4.4-.3-1.7 0-4.4m52 166.5q.2-.2.8.1.3.8.2 1.8-.5-.4-1-1.9"/>
  <path fill="#e2683b" d="M651 478.8q0-.6.7-1.7 0 .6-.6 1.7"/>
  <path fill="#e76a3b" d="M376 480.4q.1-.4.5-.1l1 1.4q-.6-.2-1.4-1.3m320.4-185.9"/>
  <path fill="#e2683b" d="M650 479.8q0-.3.6-1 .2.4-.5 1m-1.1 1q-.1-.3.7-.9 0 .3-.8 1"/>
  <path fill="#27292a" d="m503 486.6.2-.7q.7-.6.8-1c6.6-7 14.8-5.5 19.6 4.2q.5 26.4.5 51.8v50c0 7.6.5 15.3-.3 22.8-.4 3-3.6 5.6-6.4 8.4h-9.7q-1.3-.6-2.7-1.9l-1-1.2v-.4c-.3-5.7-1-11-1-16.3z"/>
  <path fill="#282a2b" d="M457 483.2q.4.6.7 1.8l1.4 3v.3q.9 10.1 2 20l-.4 1.8q-.3.5.2 1.2.2 1 0 1.8l1 2.2q.1 1-.2 2a711 711 0 0 0 2.3 43l1 3q0 1-.3 2 0 15 .8 29.5c.1 2 .9 4.1 1.4 6.6q0 2-.3 4 .5 4.8 1.3 9.9v1.7h-.2q-.6 1.1-.8 2h-.2q-.6.5-.8 1h-.2q-1.3 1-2 2-.6 0-2 .7c-5.1 1.1-9.4 1.4-12.7-3q-1.6-13-2.8-25.7-1.3-17.3-2.2-35.4l-2-28c-.2-1.6-1.3-3-2-5q-.2-.7 0-1.8.6-8.2.4-16c-.1-8.5-2-17 2.4-25h.5q6.6.3 13 .2zm126.1-.2q.9.5 1.8 2 .8 7.9 1 14.5l-1.9 30-.8 11.2q.1 2.5.7 5.6a67 67 0 0 0 0 10q.2 1.1-.4 1.9-1.6 6.8-2.1 13.4c-.4 5.8-.2 11.6-.3 17.8l-.5 2q-1.5 14.2-2.5 27.8 0 .4-.9.9t-1.2 1h-13.1v-.3q-1.2-1-2.1-1.5v-.4q.2-.7.5-1c2.6-2.8.4-2.7-1.3-3.4q0-11 .2-21.7.6-1 .8-2.3l.1-10.9 2.8-41.4c.2-1.7-.5-3.5-.9-5.5q-.1-1.1.5-1.9 1.2-1.2 1.4-2.2l2-41.7h.3l.8-2h.2l.8-1h.3q1-.5 1.6-1h.3l.8-1h.4z"/>
  <path fill="#f6713e" d="M501.7 613c-.6-1.4-1.6-2.7-1.6-4V494.8q.1-2.7 1-5 .4 11.1.2 22.4l.1 1.3v34.7l.2 1.6z"/>
  <path fill="#e76a3b" d="m460.9 510 .3-2.1q-1-10.6-2.1-20v-.3l-.6-2.4c1.2 1.6 3.2 3.2 3.3 5 1 12 1.4 24 2.2 36q1.6 19.5 2.9 39 .6 14 .5 28.3-1.4-14.3-2.5-28.5l.1-2q-.5-2-1-3.1v-3l-1-12v-2l-1-25.9v-2l-1-2v-2z"/>
  <path fill="#051d28" d="M501.5 548v-58.5l1.2-2.7q.3 57.7.3 115.5c0 5.3.7 10.6 1 16.3l-2.2-5.3c-.2-21.3-.2-42.2-.1-63.8q0-1.3-.2-1.6"/>
  <path fill="#e2683b" d="M446.1 617c-1-1.7-2.6-3.3-2.7-5q-1-12.7-1.4-25.5c-.2-5.1.8-10.5-.5-15.2-1.7-6.3.4-12.7-1.6-18.8l1.2.5q.4-.1.7.5.3 2.8.3 6l2 27.6 2.1 29.7z"/>
  <path fill="#0f1f28" d="M563 533q.8 2.6 1 5.2l-2.9 41.4c-.2 3.5 0 7-.4 11q-.9.6-1.6 0l.7-15.6.2-11c.3-2.6.9-4.3 1-6z"/>
  <path fill="#e76a3b" d="M580.9 591q-.1-.4.5-1.9.8-5.5 1.2-10.3c.6 1.6 1.9 3.1 1.9 4.7 0 5.6.2 11.2-.7 16.7-1.1 6.2 0 13-4.5 18.3q.7-14 1.6-27.4"/>
  <path fill="#162229" d="M584 529q1-14.7 1.8-29.5c.2-4.6-.5-9.2-.8-14.2 4.6 4.7 2.7 10.8 2.6 16.6l-.5 4.2-1 18.9q.1.5-.5 1.7l-1 2.3z"/>
  <path fill="#e2683b" d="M563 532.7q-.9 12.9-2 25.2l-1 5.6c-.3-4-.8-8.6-.5-13 .5-7.5 1.7-15 2.4-22.4.2-3-.1-6 0-9 0-.6.8-1.3 1.6-1.6q.1 7-.4 13.5z"/>
  <path fill="#162229" d="M442.5 482.8c-4.2 8-2.2 16.5-2 25q.1 7.8-.8 15.7-1.2-18.2-1.6-36.5h.3q.8-1.1 1.2-2z"/>
  <path fill="#e2683b" d="M559.5 575c0 5-.2 10-.4 15.9v2.6l-.2 23.5c-.8-1.5-2.4-3-2.4-4.4.3-7 1-14 1.3-21.2.3-4.7 0-9.6.1-14.3 0-.7.9-1.4 1.6-2"/>
  <path fill="#0f1f28" d="M563.5 530.8q0-6.2.3-13.3l1.3-24.8q.4-2.6 1.5-5.5-.5 20.5-1.7 41.4-.2 1-1.4 2.2"/>
  <path fill="#e76a3b" d="M437.8 487.2q.9 18 1.6 36.6.5.9.6 2.3l-.2 10.9c-.6-4-1.5-7.8-1.7-11.7q-1.1-17.4-1.8-34.7c0-1 .8-2.1 1.5-3.4"/>
  <path fill="#162229" d="M440 537.3v-10.8c.7 1 1.8 2.5 2 4q1 13.7 1.7 28-1 .6-1.5.5l-.3-5.9-.5-3L440 540l-.2-2.7"/>
  <path fill="#e76a3b" d="M584 548v-2q.3-1.5.8-2.1c.4 2.5 1.3 5 1.1 7.5q-1 12-2.7 24a334 334 0 0 1 .9-19.5z"/>
  <path fill="#f6713e" d="M524.4 540.6q-.4-25-.5-51.3c.3.4 1 1.3 1 2.2q0 24.3-.5 49"/>
  <path fill="#0f1f28" d="M464.7 565.3q1.4 13.8 2.6 28.7c.2.5.2.5 0 1l-.4 6c-.5-2-1.3-4.1-1.4-6.2q-.7-14.5-.8-29.5"/>
  <path fill="#f6713e" d="M524.5 590.9q-.5-23.2-.4-47.4.6 1.6.9 3.9l.5 42.3q-.1.5-1 1.2"/>
  <path fill="#0f1f28" d="M583.5 558.2q0 8.2-.6 17.4 0 .6-.3 1 0 1.2.3 2h-.3q-.4 5-1.2 10.2-.5-8.4 0-17.2.5-6.6 2.1-13.4m-2.9 33.2q-.6 13-1.6 27.2-.3.5-.7.5.8-13.5 2.3-27.7"/>
  <path fill="#e2683b" d="M449 620.1c3.3 4 7.6 3.7 12.5 2.8-3.6 4.7-11.8 3-14.4-3.7q0-.5.4-.3z"/>
  <path fill="#0f1f28" d="M559 617.2q0-11.7.3-23.7.6-.6.7-.5v22q0 2.3-.4 3l-.6-.2z"/>
  <path fill="#e76a3b" d="M467 601.4q-.1-3.3.4-6.4c.6 1.4 1.5 3.2 1.5 5a89 89 0 0 1-.4 12.8q-1.1-4-1.6-7.8zm119.5-76.6q0-8.6.7-18.3c.5-.2 1.3 0 1.3.3q-.6 9-2 18m-1.7 4.2q.2-.9.8-2c1.9 4.5 2.7 9.2-.2 13.4q-.5-6-.6-11.4"/>
  <path fill="#162229" d="m456 483-12.7-.1q1-1 3.8-2c2.8 0 4.8.2 6.8.3l.1.2q1 1 2 1.6"/>
  <path fill="#0f1f28" d="M584.6 529q.4 5.5.5 11.5 0 1.7-.3 3l-.9 2.2q-.6-2.3-.7-5 .2-5.3.8-11.2.1-.6.6-.5M563 621.4q5.9-.4 12.7-.3c-3.7 3.5-8 3-12.6.3m-96.5-16.1a65 65 0 0 1 1.7 9l-.4.7q-.8-4.7-1.3-9.7"/>
  <path fill="#e76a3b" d="M439.9 540.2q1 4.4 1.4 10.2l-.4 2.6q-.3-.1-.8-.8-.3-6-.2-12m13.9-59.3q-2.8.2-6.3-.2c1.7-2.7 4-3 6.3.2"/>
  <path fill="#162229" d="M582.9 482.7q-4.8-.1-10.5-.7 4.6 0 10.5.7"/>
  <path fill="#0f1f28" d="M560.7 619.3q1 .5 2.2 1.6-.5.4-1.5-.2z"/>
  <path fill="#e2683b" d="m560.8 619.3.3 1.4q-1-.9-2-2.5 0-.4.6-.1.2 0 .2.3z"/>
  <path fill="#0f1f28" d="m458.4 485.1.7 2.5q-.7-.7-1.3-2.4h.6"/>
  <path fill="#e76a3b" d="M456.2 483q-1.2-.6-2.2-1.6 1.2.2 2.9 1.5-.1.3-.7.1m7.8 138.9a6 6 0 0 1 1.7-1.9 6 6 0 0 1-1.7 1.9"/>
  <path fill="#162229" d="M567.7 485.1q0 .6-.6 1.7 0-.6.6-1.7"/>
  <path fill="#e76a3b" d="M439.3 485.2q0 .6-1 1.8 0-.7 1-1.8"/>
  <path fill="#162229" d="M570.6 482.8q-.2.6-1.4 1.1.3-.5 1.4-1"/>
  <path fill="#e76a3b" d="M467.9 615.3q0-.7.6-1 .2 1.1-.3 2.4-.4-.2-.3-1.4"/>
  <path fill="#e2683b" d="m447.1 618.9-1-1.7q0-.4.3-.2.7 1 .9 1.8z"/>
  <path fill="#e76a3b" d="M467.1 618.8q0-.6.6-1.8 0 .7-.6 1.8"/>
  <path fill="#051d28" d="M504 619.3q.3 0 .9.6-.3 0-.8-.6"/>
  <path fill="#0f1f28" d="M576.3 621q0-.2.8-.8 0 .3-.8.8"/>
  <path fill="#e76a3b" d="M583 578q-.4 0-.3-1.3.3.1.2 1.4m-116.8 41.8q0-.4.6-1 0 .4-.6 1M635.6 463q.1.4-.3 1-.4 0-.3-.7.1-.4.6-.3"/>
  <path fill="#051d28" d="M503.8 485q0 .3-.5.8-.2-.3.5-.8"/>
  <path fill="#162229" d="M568.7 484q0 .3-.5.9 0-.3.5-.9m3-2q0 .2-.6.8 0-.3.6-.9"/>
  <path fill="#282a2b" d="M574.2 257.3q10.5-11 22.2-22c3.7-.8 6.4-.3 7.8 3.3.5 3.1 1.5 5.8 1.5 8.5q-.1 10.5-.7 21h-.2q-.1 1.4.2 3.2a9 9 0 0 1-1.2 2.8l-4 3.7q-1.8-1.3-3.7-3.6-1.2-1.5-2.2-2.2v-.3l-2.6-1.6q-8.5-6.2-17.1-12.8"/>
  <path fill="#27292a" d="m429.1 236 .8.3 1.2.7.9.3 1.3.6q8.9 9 17.8 18.6-7.3 6.2-14.6 12c-3.4 2.9-6.5 6.1-10.4 9.3a25 25 0 0 1-3.1-6.9 61 61 0 0 1-2-27.6c.8-4.7 2.8-7.9 8.1-7.3"/>
  <path fill="#eee9e3" d="m604 274 1.2-3v-3l.2-.1c1-4.6 2.4-9 2.3-13.3-.2-5.6.8-11.6-3.4-16.5-1.5-3-4.2-3.6-7.7-3 1.4-.6 4-2.4 4.9-1.8 2.5 1.8 5.6 4.2 6.2 6.9 3 12.3 1.2 24.5-2.5 36.5l-1.4 5.2q-.6.1-1.3-1 .6-3.8 1.6-7"/>
  <path fill="#141516" d="M429 235.6c-5.2-.2-7.2 3-8 7.7a61 61 0 0 0 5 34.7q-.6 1.1-2.3 1.6l-1.3-2v-.2l-1-3.7v-.3A79 79 0 0 1 420 240c2-3.3 3.4-8 9-4.4"/>
  <path fill="#5b382d" d="m526 302.9-1 17 .5 5.6c-.7-2.5-1.9-5-1.7-7.4q.5-7.4 2.2-15.2"/>
  <path fill="#eee9e3" d="M525.6 325.8q-.4-2.7-.5-5.4 1.9 1.3 4.1 3.4-.8 2.9-2.2 5.7-.7-1.3-1.4-3.7"/>
  <path fill="#141516" d="M603.8 274.1a56 56 0 0 1-1.5 6.7 9 9 0 0 1-2.4-2.6q1.6-2.3 3.9-4.1"/>
  <path fill="#eee9e3" d="M613.9 289.2q-.1 1.9-1 4.3-1.5-1.1-3-3.1 1.6-.8 4-1.2m-197.6.7q.3-1.2 1.6-2.9-.3 1.2-1.6 2.9"/>
  <path fill="#141516" d="M591.4 270.3q1.1.3 2.5 1.5-1-.3-2.5-1.5m2.6 2q.9.4 2 1.6-1-.3-2-1.6"/>
  <path fill="#eee9e3" d="M422.2 278.1q.6.2 1 1.5 0 1.2-.9 2.3-.3-1.4-.1-3.8m181.6 4.3q.5.2 1.1 1.3-.5-.2-1.1-1.3m-185.4 4.1q-.2-.4.4-1.3.3.4-.4 1.3m2.9-3.5q0-.2.6-.8zm-1 1.1q0-.3.6-1 0 .4-.6 1m-.9 1.1q0-.4.6-1 0 .4-.6 1"/>
  <path fill="#e76a3b" d="M486.3 415.3q24.5-.4 50.2-.3-.3.8-1.3.9-24.2 0-48.9-.6m-30.3 4.9a22 22 0 0 1-.1-4.8q13-.5 26.6-.4-9.9.7-20.5 1c-3 0-5 .6-6 4.2m104.3-4.9q1.1-.2 3.3-.2-1.3.3-3.3.2"/>
  <path fill="#141516" d="M391.8 358.6q0 .6-1 .5 0-.6 1-.5"/>
  <path fill="#eee9e3" d="M545.8 400.1c-8.8 4.8-18.9 5.2-29.3 5.8 0-.6.5-1.6 1.1-1.7q13.8-2.2 28.2-4"/>
  <path fill="#141516" d="m496.2 372 1.5-1.9q.4 0 .3.3l1.8 18.3-.7-.3q0-.3-.8-.7l-1.2-1.9-.7-2-1.3-2v-.3zm1.8-2 3.3-4q1.1-.4 1.8-1h.2q1.4-.3 2-.7h.4q7 .1 13.4.8-1 .8-1.7.8c-5.8-1.3-11.3-1-16.3 2.9q-1.3.8-3 1.2z"/>
  <path fill="#eee9e3" d="m519.1 364.8-13.4-.5c1.7-.7 4-2.5 6-2.1 4.5.8 8.8 2.7 13.2 4.5q0 .4-.2.4l-1.2-.4-1.7-1zM524 391c-4.5 6-10.9 3.9-16.7 3.5-1.4 0-2.6-1.2-4.1-2.2q-.3-.4.2-.3l1.7.1.6.3q7.4.2 14.8-.1l2.7-1.4z"/>
  <path fill="#141516" d="M529.9 374.5v.8a100 100 0 0 1-1.9 9.3l-.9-13.7.5-.6.4.8q.5 1 1 1v1q.5 1 .9 1.4"/>
  <path fill="#eee9e3" d="m528 385 2-9.6c2.2 3.9 2 7.8-1.7 11.5q-.5 0-.4-.3zm-32.2-12.8q0 4.3-.7 9.3.2-4.2.7-9.3"/>
  <path fill="#141516" d="M527 369q0 .5.5 1.1.1.5-.7.6-1.3-1.4-1.5-2.8z"/>
  <path fill="#eee9e3" d="M503 392q-1.4-.6-2.7-1.9-.2-.5.3-.3zm24.1-23.2q-.7-.1-1.8-1l-.4-.7.1-.1a9 9 0 0 1 2.1 1.8m-22.1-4.5q-.3.4-1.7.8a4 4 0 0 1 1.7-.8m-2.2.7q-.3.6-1.5 1zm-7.8 17.2q.6.3 1.2 1.4-.5-.2-1.1-1.4m1.9 3.9q.6.3 1 1.6zm29 3.9-1.7 1q-.5.1-.3-.4.8-.8 1.6-1zm2-3q-.2.8-1 1.7-.5 0-.4-.4l.5-1.2h.2zm26.1 7.3q0 .3-.6 1 0-.3.6-1"/>
  <path fill="#eee9e3" d="M526.8 388.9q0 .5-.6 1-.4 0-.5-.5.3-.7.8-.9zm26.2 6.9q-.1.4-.7.4 0-.3.7-1 .4.1 0 .6m-52-29.6q0 .3-.7.9 0-.3.6-1m27.9 5.9q-.3 0-.7-.7.3 0 .7.7m1 2.2q-.4 0-.7-.9.3 0 .7 1m-30.6 14.4c0-.3.4 0 .6 0l.4.4.1.5-.2.3zM419.6 240c-2 11.1-.9 22.1 1.7 33.4-1.4-5.2-3.7-10.8-4-16.5-.4-5.5 1.2-11.2 2.3-16.8m1.6 33.9q.6 1.3 1.2 3.4a13 13 0 0 1-1.2-3.3"/>
  <path fill="#141516" d="M431 236.7q-.3.2-.8-.4.2-.1.8.4m2.2 1q-.3.1-1-.4.3-.1 1 .4"/>
  <path fill="#eee9e3" d="M597.2 220.8c3.7-1.6 7.8-4 12.7-1.2q-5.9.9-12.7 1.2m17 4.3a26 26 0 0 1 2 4.4 26 26 0 0 1-2-4.4m.8 60.3q.3 1.4-.6 3.6 0-1.5.7-3.6m-2-62.2q.5.2 1.1 1.4-.5-.2-1-1.4m-18.2-1.8q.3-.4 1.6-.7-.4.4-1.6.7m15.2-1.3q.3 0 1 .5-.3.2-1-.5"/>
  <path fill="#5b382d" d="M648.7 447q.4.3.3.8-.8 0-1.9-.3.4-.4 1.6-.4m-246.7.4q.1-.3.8-.3 0 .3-.8.3m123 0q.1-.3.8-.3 0 .3-.8.3m17 0q.1-.3.8-.3 0 .3-.8.3m12 0q.1-.3.8-.2 0 .2-.8.2m71-.1q.1-.2.8-.2 0 .3-.8.2"/>
  <path fill="#c85f39" d="M505.8 649.6q-.4.3-1.5.2z"/>
  <path fill="#e9e1d7" d="M408.9 375.7q-1.4 0-3-1.2 1.3.1 3 1.2m6.4 3.5q-1 0-2.3-.8 1 0 2.3.8m-4.5-2.2q-.6 0-1.7-.7.6 0 1.7.6m7.4-.9q.7 0 1.8.6-.6 0-1.8-.6m-6.8 2q-.4-.3-.5-.7.7 0 1.8.7-.3.2-1.3 0m5.4 2q-.3.3-1-.1.3-.5 1 0m3.4-2.9q.3 0 1 .5-.3.1-1-.5"/>
  <path fill="#5b382d" d="M508.8 57.5q-1.2.5-3.5.3 1.2-.3 3.5-.3m5 0q-.7.3-2.5.3.8-.4 2.5-.3m15.2 0q-.1.3-.8.2 0-.3.8-.2"/>
  <path fill="#0f1f28" d="m447.5 618.9-1-2q-1.4-15-2.4-29.8l-2-27.7q.6-.5 1.6-.4l2.5 35q1.2 12.6 2.8 25.7-.5 0-1.5-.8m14.2-101.5q.9 12 1.2 25-.8-11.9-1.2-25m1.2 27.8q.7 5.2 1 11.3-.7-5.1-1-11.3m-2-32.1q.7.4 1 1.6-.6-.4-1-1.6m3.1 47.1q.5.8 1 2.4-.6-.6-1-2.4m-3.3-50.1q.3.1.2.6-.5 0-.2-.6"/>
  <path fill="#162229" d="m559.9 618.1.1-2.7c1.7-.2 3.9-.3 1 2.5z"/>
  <path fill="#0f1f28" d="M583.7 548.3q.4 3 .3 7.2-.4-3-.3-7.2"/>
  <path fill="#162229" d="M560.2 592.8q-.4.3-.8.2-.4-.5-.3-1.7.6-.4 1.6-.3.2.7-.5 1.8"/>
  <path fill="#0f1f28" d="M560 618.4q0-.3.7-.4.4.2.2 1-.5 0-1-.6"/>
  <path fill="#5b382d" d="M501.4 548.2q.3 0 .3.9-.3-.1-.3-1m-.1-35.9q.3 0 .3.8-.3-.1-.3-.8"/>
  <path fill="#c85f39" d="M441.1 553q-.1-.7.1-2.1.4.3.6 1.8c0 .3-.5.3-.7.3"/>
  <path fill="#141516" d="M604.2 238.6c4.3 4.4 3.3 10.4 3.5 16 0 4.3-1.3 8.7-2.3 13.3-.1-6.8.3-13.8.3-20.8 0-2.7-1-5.4-1.5-8.5m.6 29.4q.5 1 .3 2.6-.4-1-.3-2.5"/>
  <path fill="#282a2b" d="M524.7 367q.3.1.3.6.6 1.7 1.7 3.3.9 6.6 1.3 13.7c0 .5 0 .4-.2.6l-.7 2-.3-.1-3.8 3.8q-.9.8-2.7 1.1-8-.1-15 .1l-.3-.3q-2.5-1.7-4.8-2.9h-.2l-2-18.5c1-.8 2.3-1 3.1-1.6a19 19 0 0 1 16.3-3c.5.2 1-.3 1.7-.7q1 0 2.9.9l1.7 1q.3-.2 1 0"/>
  <path fill="#141516" d="M523.5 366.7q-.3.1-1.3-.5.3-.2 1.3.5m-17.8 25.7q6.7-.6 14.2-.4-6.6.6-14.2.4m17.5-1.4q1.3-2 3.6-4 .2.6-.2 1.3-.6.4-1 1l-1.6 1.3q-.3.4-.8.3m-23-1.8q2.3.9 4.8 2.6-.5.4-1.6.3l-2.8-2.2q-.4-.4-.4-.7m27.1-2q0-.7.6-1.9.2.3 0 1.4-.1.4-.6.5"/>
</svg>
